<svg width="300" height="147" viewBox="0 0 300 147" fill="none" xmlns="http://www.w3.org/2000/svg">
<defs>
  <mask id="Bmask" x="0" y="0" width="300" height="147">
    <rect class="blacklogo" x="0" y="0" fill="#fff" width="300" height="147"/>
  </mask>
</defs>
<g fill="#1D1D1B" mask="url(#Bmask)">
  <path d="M70.3487 146.471C81.2026 146.471 91.3179 143.943 100.699 138.888C110.077 133.833 117.85 126.959 124.014 118.265C129.559 108.649 131.436 106.525 134.017 95.9052H132.006C130.128 106.015 124.868 111.717 121.501 116.445C115.404 124.331 108 130.466 99.2923 134.844C90.5795 139.227 81.4692 141.416 71.9564 141.416C61.7718 141.416 52.0244 138.654 42.7115 133.126C33.3962 127.6 25.6577 120.017 19.4962 110.378C13.3321 100.743 9.57949 90.0576 8.24103 78.3302C7.97051 76.3092 7.83846 73.4112 7.83846 69.6362C7.83846 58.1796 10.2513 47.5962 15.0744 37.8911C19.8987 28.1846 26.6321 20.2335 35.2756 14.0313C43.918 7.83288 53.7974 4.12365 64.9218 2.91003C67.868 2.64177 70.0128 2.50634 71.3539 2.50634C79.3936 2.50634 87.0962 4.29389 94.4679 7.86383C101.836 11.4364 108.403 16.3915 114.167 22.7253C118.186 27.1735 120.195 32.2292 120.195 37.8911C120.195 40.8574 119.524 43.6884 118.186 46.3826L112.558 58.3125L114.167 59.3236L131.049 33.2403C123.813 22.1887 115.001 13.9307 104.618 8.47129C94.2321 3.01191 82.741 0.281577 70.1474 0.281577C57.6872 0.281577 46.0603 3.58584 35.2756 10.1892C24.4872 16.7964 15.9103 25.7277 9.54744 36.9805C3.18077 48.2372 0 60.4702 0 73.6795C0 86.8927 3.18077 99.0908 9.54744 110.278C15.9103 121.467 24.4526 130.296 35.1744 136.766C45.8923 143.235 57.6167 146.471 70.3487 146.471"/>
  <path d="M299.848 146.471V144.392L292.075 143.768C288.885 143.491 286.126 142.695 283.802 141.377C281.476 140.061 279.717 137.53 278.52 133.788L237.857 0.925161H235.067L194.406 133.788C193.208 137.53 191.445 140.061 189.122 141.377C186.795 142.695 184.04 143.491 180.852 143.768L171.681 144.392V146.471H214.338V144.392L204.371 143.768C201.979 143.633 200.052 143.144 198.591 142.313C197.127 141.48 196.399 140.025 196.399 137.946C196.399 137.394 196.663 136.008 197.197 133.788L211.547 86.5883H211.581L212.216 84.5093H212.145L234.47 11.3203L256.794 84.5093H256.723L257.39 86.7959H257.393L271.743 133.788C272.272 136.008 272.54 137.394 272.54 137.946C272.54 140.025 271.843 141.448 270.448 142.207C269.052 142.972 267.09 143.491 264.567 143.768L255.798 144.392V146.471H299.848Z"/>
  <path d="M222.659 67.5514H155.791V79.2001H222.659V67.5514Z"/>
  <path d="M222.66 0.410287H161.63V14.2232H222.66V0.410287Z"/>
  <path d="M144.208 67.5514H155.788V0.28221H144.208V67.5514Z"/>
  <path d="M144.208 146.471H155.788V79.2001H144.208V146.471Z"/>
  <path d="M77.3396 79.2001H144.209V67.5514H77.3396V79.2001Z" fill="#f5a32f"/>
</g>
</svg>
