<svg width="250" height="123" viewBox="0 0 250 123" fill="none" xmlns="http://www.w3.org/2000/svg">
<path d="M58.6239 122.059C67.6688 122.059 76.0983 119.953 83.9156 115.74C91.7308 111.528 98.2083 105.799 103.345 98.5542C107.966 90.5408 109.53 88.7706 111.681 79.921H110.005C108.44 88.3461 104.057 93.0976 101.251 97.0377C96.1699 103.609 90 108.722 82.7436 112.37C75.4829 116.022 67.891 117.846 59.9637 117.846C51.4765 117.846 43.3536 115.545 35.593 110.939C27.8301 106.333 21.3814 100.014 16.2468 91.982C11.11 83.9525 7.98291 75.048 6.86752 65.2752C6.6421 63.591 6.53205 61.176 6.53205 58.0302C6.53205 48.483 8.54274 39.6635 12.562 31.5759C16.5823 23.4872 22.1934 16.8613 29.3964 11.6927C36.5983 6.52739 44.8312 3.43637 54.1015 2.42502C56.5566 2.20147 58.344 2.08861 59.4615 2.08861C66.1613 2.08861 72.5801 3.57824 78.7233 6.55319C84.8632 9.53029 90.3355 13.6595 95.1389 18.9377C98.4883 22.6446 100.162 26.8577 100.162 31.5759C100.162 34.0478 99.6036 36.407 98.4882 38.6521L93.7981 48.5937L95.1389 49.4363L109.207 27.7003C103.177 18.4906 95.8344 11.6089 87.1816 7.0594C78.5267 2.50992 68.9509 0.234641 58.4562 0.234641C48.0726 0.234641 38.3835 2.98819 29.3964 8.49099C20.406 13.997 13.2585 21.4398 7.9562 30.8171C2.65064 40.1977 0 50.3918 0 61.3996C0 72.4105 2.65064 82.5757 7.9562 91.8982C13.2585 101.223 20.3771 108.58 29.312 113.972C38.2436 119.363 48.0139 122.059 58.6239 122.059" fill="#1D1D1B"/>
<path d="M249.873 122.059V120.327L243.396 119.807C240.737 119.576 238.438 118.912 236.501 117.814C234.563 116.718 233.098 114.608 232.1 111.49L198.214 0.770963H195.889L162.005 111.49C161.007 114.608 159.538 116.718 157.602 117.814C155.663 118.912 153.367 119.576 150.71 119.807L143.068 120.327V122.059H178.615V120.327L170.309 119.807C168.315 119.694 166.71 119.286 165.493 118.594C164.273 117.9 163.666 116.688 163.666 114.955C163.666 114.495 163.886 113.34 164.33 111.49L176.289 72.1569H176.318L176.846 70.4244H176.788L195.391 9.43357L213.995 70.4244H213.936L214.492 72.3299H214.494L226.452 111.49C226.893 113.34 227.117 114.495 227.117 114.955C227.117 116.688 226.536 117.873 225.373 118.506C224.21 119.144 222.575 119.576 220.473 119.807L213.165 120.327V122.059H249.873Z" fill="#1D1D1B"/>
<path d="M185.549 56.2928H129.826V66.0001H185.549V56.2928Z" fill="#1D1D1B"/>
<path d="M185.55 0.341905H134.691V11.8526H185.55V0.341905Z" fill="#1D1D1B"/>
<path d="M120.173 56.2928H129.824V0.235178H120.173V56.2928Z" fill="#1D1D1B"/>
<path d="M120.173 122.059H129.824V66.0001H120.173V122.059Z" fill="#1D1D1B"/>
<path d="M64.4497 66.0001H120.174V56.2928H64.4497V66.0001Z" fill="#FFCC33"/>
</svg>
