<svg width="512" height="250" viewBox="0 0 512 250" fill="none" xmlns="http://www.w3.org/2000/svg">
<defs>
 <linearGradient id="white-fill" x1="0" y1="1" x2="0" y2="0">
    <stop offset="100%" stop-opacity="1" stop-color="white">
      <animate attributeName="offset" values="0;1" repeatCount="1" dur="3s" begin="0s"/>
    </stop>
    <stop offset="100%" stop-opacity="0" stop-color="white">
      <animate attributeName="offset" values="0;1" repeatCount="1" dur="3s"  begin="0s"/>
    </stop>
    
</linearGradient>
</defs>
<g fill="#1D1D1B">
  <path d="M120.192 249.978C138.716 249.978 155.979 245.663 171.989 237.035C187.994 228.409 201.261 216.677 211.781 201.839C221.244 185.427 224.447 181.802 228.852 163.678H225.421C222.215 180.933 213.238 190.664 207.492 198.733C197.086 212.191 184.45 222.662 169.589 230.134C154.719 237.614 139.171 241.349 122.935 241.349C105.554 241.349 88.9181 236.637 73.0242 227.203C57.126 217.771 43.919 204.828 33.4033 188.379C22.8832 171.935 16.4789 153.698 14.1946 133.684C13.7329 130.234 13.5075 125.288 13.5075 118.846C13.5075 99.2932 17.6254 81.2308 25.8568 64.6674C34.0903 48.1018 45.5819 34.5319 60.3336 23.9467C75.0832 13.3681 91.9441 7.03769 110.93 4.96644C115.958 4.5086 119.618 4.27748 121.907 4.27748C135.628 4.27748 148.774 7.32823 161.355 13.4209C173.93 19.518 185.137 27.9747 194.974 38.7844C201.834 46.3761 205.262 55.0045 205.262 64.6674C205.262 69.73 204.118 74.5614 201.834 79.1596L192.228 99.5199L194.974 101.246L223.786 56.7302C211.437 37.8688 196.399 23.775 178.678 14.4577C160.953 5.14032 141.341 0.480548 119.848 0.480548C98.5826 0.480548 78.7394 6.11982 60.3336 17.3896C41.9213 28.6659 27.2834 43.9087 16.4242 63.1134C5.55838 82.3248 0.129864 103.202 0.129864 125.746C0.129864 148.297 5.55838 169.115 16.4242 188.207C27.2834 207.304 41.8622 222.371 60.1608 233.414C78.4527 244.455 98.4623 249.978 120.192 249.978" />
  <path d="M511.87 249.978V246.429L498.604 245.364C493.16 244.891 488.452 243.533 484.485 241.283C480.516 239.038 477.514 234.717 475.47 228.332L406.072 1.57891H401.311L331.915 228.332C329.872 234.717 326.863 239.038 322.898 241.283C318.927 243.533 314.225 244.891 308.783 245.364L293.132 246.429V249.978H365.933V246.429L348.923 245.364C344.84 245.133 341.551 244.299 339.059 242.881C336.56 241.459 335.318 238.976 335.318 235.428C335.318 234.486 335.768 232.12 336.679 228.332L361.169 147.777H361.228L362.311 144.229H362.191L400.291 19.3199L438.392 144.229H438.271L439.409 148.132H439.413L463.904 228.332C464.808 232.12 465.265 234.486 465.265 235.428C465.265 238.976 464.075 241.404 461.694 242.701C459.311 244.006 455.964 244.891 451.658 245.364L436.691 246.429V249.978H511.87Z"/>
  <path d="M380.004 115.288H265.883V135.168H380.004V115.288Z" />
  <path d="M380.007 0.700236H275.848V24.2742H380.007V0.700236Z" />
  <path d="M246.114 115.288H265.879V0.481645H246.114V115.288Z" />
  <path d="M246.114 249.976H265.879V135.168H246.114V249.976Z" />
</g>
<g fill="#FFCC99">
  <path d="M131.993 135.168H246.116V115.288H131.993V135.168Z"/>
</g>
<g fill="white">
  <path d="M246.154 115.325H265.845V135.134H246.154V115.325Z"/>
</g>
</svg>
