<svg xmlns="http://www.w3.org/2000/svg" viewBox="0 0 32 40" x="0px" y="0px"><defs><style>.cls-1{fill:none;}</style></defs><title>Mail</title><g data-name="Cloud"><path class="cls-1" d="M16.54,16.84a1,1,0,0,1-1.08,0l-3.73-2.4L3,22.74V24H29V22.74l-8.73-8.3Z"/><polygon class="cls-1" points="26.59 8 5.41 8 16 14.81 26.59 8"/><polygon class="cls-1" points="29 19.98 29 8.83 22 13.33 29 19.98"/><polygon class="cls-1" points="10 13.33 3 8.83 3 19.98 10 13.33"/><path fill="#000" d="M31,6.72l0-.06a.67.67,0,0,0-.06-.12.76.76,0,0,0-.12-.19l-.09-.09a.86.86,0,0,0-.2-.13l-.1-.06A1.1,1.1,0,0,0,30,6H2a1.1,1.1,0,0,0-.36.07l-.1.06a.86.86,0,0,0-.2.13l-.09.09a.76.76,0,0,0-.12.19.67.67,0,0,0-.06.12l0,.06a1.52,1.52,0,0,0,0,.21S1,7,1,7V25a1,1,0,0,0,1,1H30a1,1,0,0,0,1-1V7s0,0,0-.07A1.52,1.52,0,0,0,31,6.72ZM29,20l-7-6.65,7-4.5ZM26.6,8,16,14.81,5.4,8ZM10,13.33,3,20V8.83ZM29,24H3V22.74l8.73-8.3,3.73,2.4a1,1,0,0,0,1.08,0l3.73-2.4L29,22.74Z"/></g></svg>