<svg height="400" viewBox="0 0 400 400" width="400" xmlns="http://www.w3.org/2000/svg"><path d="m103.657 130.565c-2.433 1.704-3.835 6.751-5.398 19.435-.702 5.695-18.297 43.773-23.358 50.55-2.336 3.128-3.295 1.15-5.078-10.477-4.013-26.18-.93-38.28 10.133-39.764 9.972-1.337 4.536-9.813-5.698-8.885-18.347 1.664-24.004 20.193-16.583 54.324 6.809 31.317 19.226 28.001 32.665-8.723 6.343-17.332 9.024-21.691 8.082-13.136-2.459 22.323-1.956 26.572 3.299 27.891 4.041 1.014 5.255-.487 13.752-17.005 9.478-18.424 11.84-19.547 10.859-5.167-1.562 22.908 5.761 25.022 16 4.618 6.586-13.125 6.52-13.103 6.232-2.07-.301 11.531 5.548 16.106 8.982 7.025 1.331-3.519 2.726-27.179 1.752-29.716-2.314-6.031-7.036-1.583-15.888 14.966-10.002 18.7-10.579 18.517-7.126-2.272 2.178-13.116 1.365-16.603-3.871-16.603-6.512 0-11.792 5.51-24.489 25.555l-2.464 3.889.699-6.667c.805-7.675 1.504-10.406 5.404-21.111 6.551-17.976 1.932-33.548-7.906-26.657m241.343-.075c-10.62 4.588-22.386 16.383-40.308 40.406-11.464 15.369-11.858 15.005-8.083-7.484 3.752-22.359 3.16-23.387-9.696-16.843-11.403 5.804-19.81 17.65-21.05 29.658-1.686 16.336 10.68 15.49 17.93-1.227l2.892-6.667-.117 10c-.179 15.313-.096 15.929 2.311 17.217 4.826 2.583 12.579-4.534 23.599-21.661 8.704-13.528 18.748-25.239 27.631-32.218 10.293-8.087 13.221-14.781 4.891-11.181m-187.569 3.515c-3.668 1.988-3.435 3.759.766 5.806 2.599 1.267 3.421 1.224 5.751-.303 3.429-2.247 3.543-5.695.219-6.585-3.241-.869-3.094-.892-6.736 1.082m-51.773 9.424c-.711 1.776-1.096 2.056-1.143.829-.094-2.463 1.345-6.124 1.832-4.662.211.632-.099 2.357-.689 3.833m151.009.782c-3.254 1.773-10.798 10.312-17.325 19.611-2.582 3.677-3.125.929-1.191-6.025 6.149-22.117-7.135-17.768-21.504 7.04-8.695 15.01-11.516 11.624-8.338-10.006.95-6.458-1.157-8.886-6.538-7.536-4.155 1.043-5.571 3.246-11.733 18.259-6.862 16.716-8.34 18.626-7.475 9.661.416-4.307 1.94-8.998 4.585-14.109 3.499-6.761 5.142-13.328 3.335-13.328-9.032 0-21.397 34.552-15.42 43.086 4.455 6.36 10.551 2.894 16.179-9.2l3.618-7.775.73 7.685c1.775 18.704 15.07 16.937 22.637-3.008 2.833-7.467 11.009-19.783 9.006-13.566-2.565 7.959-2.007 24.733.886 26.628 6.017 3.943 9.474.35 16.95-17.619 7.725-18.566 10.761-22.247 22.072-26.762 5.152-2.057 4.286-3.808-2.284-4.622-2.951-.365-5.523.133-8.19 1.586m25.599 18.784c-7.094 16.624-10.864 19.044-4.892 3.14 2.864-7.629 7.844-15.732 8.974-14.602.312.312-1.525 5.47-4.082 11.462m-159.146 45.024c-5.63 1.905-11.762 24.778-17.51 65.314-3.638 25.656 9.464 27.577 40.778 5.978 11.761-8.112 10.734-7.766 14.42-4.867 8.26 6.498 15.624 1.961 24.831-15.298 12.097-22.678 14.21-24.967 11.603-12.572-5.792 27.531 4.139 38.433 15.541 17.062 5.446-10.209 7.217-10.857 7.217-2.642 0 26.974 28.325 14.553 34.494-15.126 1.848-8.892 3.261-9.958 16.617-12.537 26.576-5.13 37.968-9.141 34.842-12.267-.825-.825-4.447-.52-12.175 1.025-6.05 1.209-16.679 2.78-23.619 3.491l-12.619 1.292-3.523-3.414c-7.306-7.081-21.795-4.555-21.795 3.8 0 1.46-.797 3.299-1.772 4.087-6.583 5.321-13.347 12.054-16.71 16.636-6.407 8.728-6.541 7.481-1.713-15.981 2.752-13.378 2.242-12.667 9.653-13.432 17.804-1.838 20.216-11.458 2.573-10.264-6.117.414-9.894.234-10.343-.493-1.196-1.935-4.995-1.276-8.706 1.512-1.946 1.461-5.287 3.02-7.426 3.465s-5.139 1.459-6.667 2.255l-2.778 1.446 3.128 1.2c1.721.66 4.096 1.2 5.278 1.2 2.8 0 2.699 1.585-.53 8.333-3.649 7.627-23.437 38.706-24.968 39.216-2.969.99-.932-5.451 3.315-10.484 13.762-16.309 10.854-33.845-4.322-26.062-8.396 4.306-12.374 11.206-13.267 23.012-.725 9.58.532 8.245-17.014 18.065l-13.842 7.747-.36-4.065c-.199-2.235 1.484-17.187 3.738-33.225 2.254-16.039 3.831-29.858 3.504-30.71-.907-2.363-6.414-3.868-9.873-2.697m121.324 29.263c0 5.36-7.622 25.84-10.509 28.235-3.191 2.649-3.222.194-.125-9.902 1.68-5.476 3.326-11.979 3.657-14.452.526-3.923 6.977-7.511 6.977-3.881m-70.764 3.735c-.647 2.475-5.902 7.742-5.902 5.916 0-2.163 2.316-7.416 3.627-8.226 1.872-1.157 2.907-.106 2.275 2.31" fill-rule="evenodd"/></svg>