<svg height="595pt" viewBox="0 0 842 595" width="842pt" xmlns="http://www.w3.org/2000/svg" xmlns:xlink="http://www.w3.org/1999/xlink"><clipPath id="a"><path d="m0 0h842v595h-842z" transform="matrix(1 0 0 -1 0 595)"/></clipPath><clipPath id="b"><path d="m49.54092 56.69292h742.91818v488.60418h-742.91818z" transform="matrix(1 0 0 -1 0 595)"/></clipPath><clipPath id="c"><path d="m300.5965 283.0716h240.80709v240.80709h-240.80709z" transform="matrix(1 0 0 -1 0 595)"/></clipPath><g clip-path="url(#a)" enable-background="new"><path d="m0 595h842v-595h-842z" fill="#fff" transform="matrix(1 0 0 -1 0 595)"/><g clip-path="url(#b)"><text font-family="HelveticaNeue" font-size="24" transform="translate(172.6447 79.908878)" xml:space="preserve"><tspan x="0" y="0"></tspan></text></g><text font-family="HelveticaNeue" font-size="24" font-weight="bold" transform="translate(175.984 362.78889)" xml:space="preserve"><tspan x="0 7.080001 13.752001 29.328003 36.000005 54.672006 61.344007 76.920009 83.59201 101.37601 108.048007 123.600009 130.272 144.504 151.176 166.728 173.4 188.976 195.648 202.31999 216.55199 223.22399 230.30399 236.97599 254.75998 261.43199 279.64799 286.31999 301.87199 308.54399 325.87199 332.54399 339.62397 346.29597 361.84797 368.51997 375.19197 389.59196 396.26396 402.93595 418.51194 425.18394 447.83995 454.51194 461.59193 468.26393" y="0">I S O S C E L E S  L I N G E R I E  +  S W I M</tspan></text><g clip-path="url(#c)"><path d="m456.743 329.0781v8.3219h-27.1709l15.9097 142.9582h-40.5677l-1.242-1.7585c-26.3112-37.2479-14.1852-70.1122-10.0838-78.9132-5.6153-9.5316-7.9327-19.1617-8.332-28.1683v-5.8022c.9345-21.4043 11.776-38.0769 12.4726-39.1218l6.9337 4.606c-.231.3466-22.6871 35.0069-2.8102 66.0346l1.3542 2.1136-1.2386 2.1866c-.1869.3296-18.0743 32.8253 7.2871 70.5013h26.9263l-15.9098-142.9582z" fill="#231f20" transform="matrix(1 0 0 -1 0 595)"/></g></g></svg>