<?xml version="1.0" encoding="UTF-8"?> <svg xmlns="http://www.w3.org/2000/svg" fill="none" height="431" viewBox="0 0 493 431" width="493"><path d="m3.01147 388.825v17.136h3.768v-17.136zm16.32583 11.448h-3.648c-.016 1.056.176 1.968.576 2.736s.936 1.4 1.608 1.896c.688.496 1.472.856 2.352 1.08.896.24 1.816.36 2.76.36 1.168 0 2.192-.136 3.072-.408.896-.272 1.64-.648 2.232-1.128.608-.496 1.064-1.08 1.368-1.752s.456-1.4.456-2.184c0-.96-.208-1.744-.624-2.352-.4-.624-.88-1.12-1.44-1.488s-1.128-.632-1.704-.792c-.56-.176-1-.296-1.32-.36-1.072-.272-1.944-.496-2.616-.672-.656-.176-1.176-.352-1.56-.528-.368-.176-.616-.368-.744-.576s-.192-.48-.192-.816c0-.368.08-.672.24-.912s.36-.44.6-.6c.256-.16.536-.272.84-.336s.608-.096.912-.096c.464 0 .888.04 1.272.12.4.08.752.216 1.056.408s.544.456.72.792c.192.336.304.76.336 1.272h3.648c0-.992-.192-1.832-.576-2.52-.368-.704-.872-1.28-1.512-1.728s-1.376-.768-2.208-.96c-.816-.208-1.672-.312-2.568-.312-.768 0-1.536.104-2.304.312s-1.456.528-2.064.96-1.104.976-1.488 1.632c-.368.64-.552 1.4-.552 2.28 0 .784.144 1.456.432 2.016.304.544.696 1 1.176 1.368s1.024.672 1.632.912c.608.224 1.232.416 1.872.576.624.176 1.24.336 1.848.48s1.152.312 1.632.504.864.432 1.152.72c.304.288.456.664.456 1.128 0 .432-.112.792-.336 1.08-.224.272-.504.488-.84.648s-.696.272-1.08.336c-.384.048-.744.072-1.08.072-.496 0-.976-.056-1.44-.168-.464-.128-.872-.312-1.224-.552-.336-.256-.608-.584-.816-.984s-.312-.888-.312-1.464zm22.7216-2.808c0-.752.08-1.48.24-2.184.176-.704.448-1.328.816-1.872.368-.56.848-1 1.44-1.32.592-.336 1.312-.504 2.16-.504s1.568.168 2.16.504c.592.32 1.072.76 1.44 1.32.368.544.632 1.168.792 1.872.176.704.264 1.432.264 2.184 0 .72-.088 1.424-.264 2.112-.16.672-.424 1.28-.792 1.824s-.848.984-1.44 1.32c-.592.32-1.312.48-2.16.48s-1.568-.16-2.16-.48c-.592-.336-1.072-.776-1.44-1.32s-.64-1.152-.816-1.824c-.16-.688-.24-1.392-.24-2.112zm-3.768 0c0 1.248.192 2.416.576 3.504.384 1.072.936 2.008 1.656 2.808s1.6 1.432 2.64 1.896c1.056.448 2.24.672 3.552.672 1.328 0 2.512-.224 3.552-.672 1.04-.464 1.92-1.096 2.64-1.896s1.272-1.736 1.656-2.808c.384-1.088.576-2.256.576-3.504 0-1.28-.192-2.464-.576-3.552-.384-1.104-.936-2.064-1.656-2.88s-1.6-1.456-2.64-1.92-2.224-.696-3.552-.696c-1.312 0-2.496.232-3.552.696-1.04.464-1.92 1.104-2.64 1.92s-1.272 1.776-1.656 2.88c-.384 1.088-.576 2.272-.576 3.552zm28.6714 2.808h-3.648c-.016 1.056.176 1.968.576 2.736s.936 1.4 1.608 1.896c.688.496 1.472.856 2.352 1.08.896.24 1.816.36 2.76.36 1.168 0 2.192-.136 3.072-.408.896-.272 1.64-.648 2.232-1.128.608-.496 1.064-1.08 1.368-1.752s.456-1.4.456-2.184c0-.96-.208-1.744-.624-2.352-.4-.624-.88-1.12-1.44-1.488s-1.128-.632-1.704-.792c-.56-.176-1-.296-1.32-.36-1.072-.272-1.944-.496-2.616-.672-.656-.176-1.176-.352-1.56-.528-.368-.176-.616-.368-.744-.576s-.192-.48-.192-.816c0-.368.08-.672.24-.912s.36-.44.6-.6c.256-.16.536-.272.84-.336s.608-.096.912-.096c.464 0 .888.04 1.272.12.4.08.752.216 1.056.408s.544.456.72.792c.192.336.304.76.336 1.272h3.648c0-.992-.192-1.832-.576-2.52-.368-.704-.872-1.28-1.512-1.728s-1.376-.768-2.208-.96c-.816-.208-1.672-.312-2.568-.312-.768 0-1.536.104-2.304.312s-1.456.528-2.064.96-1.104.976-1.488 1.632c-.368.64-.552 1.4-.552 2.28 0 .784.144 1.456.432 2.016.304.544.696 1 1.176 1.368s1.024.672 1.632.912c.608.224 1.232.416 1.872.576.624.176 1.24.336 1.848.48s1.152.312 1.632.504.864.432 1.152.72c.304.288.456.664.456 1.128 0 .432-.112.792-.336 1.08-.224.272-.504.488-.84.648s-.696.272-1.08.336c-.384.048-.744.072-1.08.072-.496 0-.976-.056-1.44-.168-.464-.128-.872-.312-1.224-.552-.336-.256-.608-.584-.816-.984s-.312-.888-.312-1.464zm31.1216-5.688h3.6481c-.112-.992-.384-1.872-.816-2.64s-.9841-1.408-1.6561-1.92c-.656-.528-1.408-.928-2.256-1.2-.832-.272-1.72-.408-2.664-.408-1.312 0-2.496.232-3.552.696-1.04.464-1.92 1.104-2.64 1.92s-1.272 1.776-1.656 2.88c-.384 1.088-.576 2.272-.576 3.552 0 1.248.192 2.416.576 3.504.384 1.072.936 2.008 1.656 2.808s1.6 1.432 2.64 1.896c1.056.448 2.24.672 3.552.672 1.056 0 2.024-.16 2.904-.48s1.648-.784 2.304-1.392c.6561-.608 1.1841-1.344 1.5841-2.208s.648-1.832.744-2.904h-3.6481c-.144 1.152-.544 2.08-1.2 2.784-.64.704-1.536 1.056-2.688 1.056-.848 0-1.568-.16-2.16-.48-.592-.336-1.072-.776-1.44-1.32s-.64-1.152-.816-1.824c-.16-.688-.24-1.392-.24-2.112 0-.752.08-1.48.24-2.184.176-.704.448-1.328.816-1.872.368-.56.848-1 1.44-1.32.592-.336 1.312-.504 2.16-.504.464 0 .904.08 1.32.24.432.144.816.352 1.152.624s.616.592.84.96c.224.352.368.744.432 1.176zm13.0451-5.76v17.136h13.008v-3.168h-9.24v-4.2h8.304v-2.928h-8.304v-3.672h9.048v-3.168zm22.242 0v17.136h12.12v-3.168h-8.352v-13.968zm20.906 0v17.136h13.008v-3.168h-9.24v-4.2h8.304v-2.928h-8.304v-3.672h9.048v-3.168zm24.81 11.448h-3.648c-.016 1.056.176 1.968.576 2.736s.936 1.4 1.608 1.896c.688.496 1.472.856 2.352 1.08.896.24 1.816.36 2.76.36 1.168 0 2.192-.136 3.072-.408.896-.272 1.64-.648 2.232-1.128.608-.496 1.064-1.08 1.368-1.752s.456-1.4.456-2.184c0-.96-.208-1.744-.624-2.352-.4-.624-.88-1.12-1.44-1.488s-1.128-.632-1.704-.792c-.56-.176-1-.296-1.32-.36-1.072-.272-1.944-.496-2.616-.672-.656-.176-1.176-.352-1.56-.528-.368-.176-.616-.368-.744-.576s-.192-.48-.192-.816c0-.368.08-.672.24-.912s.36-.44.6-.6c.256-.16.536-.272.84-.336s.608-.096.912-.096c.464 0 .888.04 1.272.12.4.08.752.216 1.056.408s.544.456.72.792c.192.336.304.76.336 1.272h3.648c0-.992-.192-1.832-.576-2.52-.368-.704-.872-1.28-1.512-1.728s-1.376-.768-2.208-.96c-.816-.208-1.672-.312-2.568-.312-.768 0-1.536.104-2.304.312s-1.456.528-2.064.96-1.104.976-1.488 1.632c-.368.64-.552 1.4-.552 2.28 0 .784.144 1.456.432 2.016.304.544.696 1 1.176 1.368s1.024.672 1.632.912c.608.224 1.232.416 1.872.576.624.176 1.24.336 1.848.48s1.152.312 1.632.504.864.432 1.152.72c.304.288.456.664.456 1.128 0 .432-.112.792-.336 1.08-.224.272-.504.488-.84.648s-.696.272-1.08.336c-.384.048-.744.072-1.08.072-.496 0-.976-.056-1.44-.168-.464-.128-.872-.312-1.224-.552-.336-.256-.608-.584-.816-.984s-.312-.888-.312-1.464zm26.378-11.448v17.136h12.12v-3.168h-8.352v-13.968zm20.906 0v17.136h3.768v-17.136zm13.758 0v17.136h3.528v-11.472h.048l7.128 11.472h3.768v-17.136h-3.528v11.496h-.048l-7.152-11.496zm36.852 15.192.384 1.944h2.4v-9.264h-7.2v2.808h3.792c-.112 1.2-.512 2.12-1.2 2.76-.672.624-1.632.936-2.88.936-.848 0-1.568-.16-2.16-.48-.592-.336-1.072-.776-1.44-1.32s-.64-1.152-.816-1.824c-.16-.688-.24-1.392-.24-2.112 0-.752.08-1.48.24-2.184.176-.704.448-1.328.816-1.872.368-.56.848-1 1.44-1.32.592-.336 1.312-.504 2.16-.504.912 0 1.688.24 2.328.72s1.072 1.2 1.296 2.16h3.6c-.096-.976-.36-1.84-.792-2.592s-.984-1.384-1.656-1.896c-.656-.512-1.4-.896-2.232-1.152-.816-.272-1.664-.408-2.544-.408-1.312 0-2.496.232-3.552.696-1.04.464-1.92 1.104-2.64 1.92s-1.272 1.776-1.656 2.88c-.384 1.088-.576 2.272-.576 3.552 0 1.248.192 2.416.576 3.504.384 1.072.936 2.008 1.656 2.808s1.6 1.432 2.64 1.896c1.056.448 2.24.672 3.552.672.832 0 1.656-.168 2.472-.504.816-.352 1.56-.96 2.232-1.824zm12.507-15.192v17.136h13.008v-3.168h-9.24v-4.2h8.304v-2.928h-8.304v-3.672h9.048v-3.168zm26.01 7.752v-4.824h4.128c.864 0 1.512.192 1.944.576.432.368.648.968.648 1.8 0 .864-.216 1.488-.648 1.872s-1.08.576-1.944.576zm-3.768-7.752v17.136h3.768v-6.696h3.768c.944 0 1.624.208 2.04.624s.688 1.072.816 1.968c.096.688.168 1.408.216 2.16s.176 1.4.384 1.944h3.768c-.176-.24-.312-.528-.408-.864-.08-.352-.144-.72-.192-1.104-.032-.384-.056-.76-.072-1.128s-.032-.688-.048-.96c-.032-.432-.096-.864-.192-1.296-.08-.432-.216-.824-.408-1.176-.192-.368-.44-.68-.744-.936-.304-.272-.688-.472-1.152-.6v-.048c.96-.384 1.648-.944 2.064-1.68.432-.736.648-1.608.648-2.616 0-.656-.12-1.264-.36-1.824-.224-.576-.56-1.08-1.008-1.512-.432-.432-.96-.768-1.584-1.008-.608-.256-1.296-.384-2.064-.384zm24 0v17.136h3.768v-17.136zm13.758 0v17.136h13.008v-3.168h-9.24v-4.2h8.304v-2.928h-8.304v-3.672h9.048v-3.168zm35.762 9.792v-4.776h-2.568v4.776h-4.776v2.568h4.776v4.776h2.568v-4.776h4.776v-2.568zm23.478 1.656h-3.648c-.016 1.056.176 1.968.576 2.736s.936 1.4 1.608 1.896c.688.496 1.472.856 2.352 1.08.896.24 1.816.36 2.76.36 1.168 0 2.192-.136 3.072-.408.896-.272 1.64-.648 2.232-1.128.608-.496 1.064-1.08 1.368-1.752s.456-1.4.456-2.184c0-.96-.208-1.744-.624-2.352-.4-.624-.88-1.12-1.44-1.488s-1.128-.632-1.704-.792c-.56-.176-1-.296-1.32-.36-1.072-.272-1.944-.496-2.616-.672-.656-.176-1.176-.352-1.56-.528-.368-.176-.616-.368-.744-.576s-.192-.48-.192-.816c0-.368.08-.672.24-.912s.36-.44.6-.6c.256-.16.536-.272.84-.336s.608-.096.912-.096c.464 0 .888.04 1.272.12.4.08.752.216 1.056.408s.544.456.72.792c.192.336.304.76.336 1.272h3.648c0-.992-.192-1.832-.576-2.52-.368-.704-.872-1.28-1.512-1.728s-1.376-.768-2.208-.96c-.816-.208-1.672-.312-2.568-.312-.768 0-1.536.104-2.304.312s-1.456.528-2.064.96-1.104.976-1.488 1.632c-.368.64-.552 1.4-.552 2.28 0 .784.144 1.456.432 2.016.304.544.696 1 1.176 1.368s1.024.672 1.632.912c.608.224 1.232.416 1.872.576.624.176 1.24.336 1.848.48s1.152.312 1.632.504.864.432 1.152.72c.304.288.456.664.456 1.128 0 .432-.112.792-.336 1.08-.224.272-.504.488-.84.648s-.696.272-1.08.336c-.384.048-.744.072-1.08.072-.496 0-.976-.056-1.44-.168-.464-.128-.872-.312-1.224-.552-.336-.256-.608-.584-.816-.984s-.312-.888-.312-1.464zm36.018 5.688 4.608-17.136h-3.696l-2.808 11.808h-.048l-2.928-11.808h-3.528l-2.976 11.664h-.048l-2.712-11.664h-3.768l4.536 17.136h3.816l2.856-11.664h.048l2.904 11.664zm13.023-17.136v17.136h3.768v-17.136zm13.758 0v17.136h3.528v-12.024h.048l4.2 12.024h2.904l4.2-12.144h.048v12.144h3.528v-17.136h-5.304l-3.792 11.784h-.048l-4.008-11.784z" fill="#000"></path><path d="m305.762 257.673v-14.175h-46.28l27.099-243.49796592h-69.098l-2.116 2.99519592c-44.815 63.44377-24.161 119.42077-17.175 134.41177-9.565 16.235-13.512 32.638-14.192 47.978v9.883c1.592 36.458 20.058 64.856 21.244 66.636l11.81-7.846c-.393-.59-38.642-59.626-4.786-112.475l2.306-3.6-2.109-3.725c-.319-.561-30.786-55.9105 12.412-120.0834h45.863l-27.099 243.4984z" fill="#231f20"></path></svg> 