<?xml version="1.0" standalone="no"?>
<!DOCTYPE svg PUBLIC "-//W3C//DTD SVG 1.1//EN" "http://www.w3.org/Graphics/SVG/1.1/DTD/svg11.dtd" >
<svg xmlns="http://www.w3.org/2000/svg" xmlns:xlink="http://www.w3.org/1999/xlink" version="1.1">
<metadata>
Created by FontForge 20170731 at Thu Feb 27 06:21:54 2020
 By Aleksey,,,
</metadata>
<defs>
<font id="SometimesTimes-Regular" horiz-adv-x="517" >
  <font-face 
    font-family="Sometimes Times"
    font-weight="400"
    font-stretch="normal"
    units-per-em="1000"
    panose-1="0 0 5 0 0 0 0 0 0 0"
    ascent="800"
    descent="-200"
    x-height="490"
    cap-height="700"
    bbox="-13 -280 993 931"
    underline-thickness="50"
    underline-position="-150"
    unicode-range="U+0020-FB02"
  />
<missing-glyph horiz-adv-x="497" 
d="M35 0v700h427v-700h-427zM63 680l185 -309l186 309h-371zM261 350l181 -303v605zM236 350l-180 300v-601zM249 329l-185 -308h370z" />
    <glyph glyph-name="fi.liga" unicode="fi" horiz-adv-x="423" 
d="M83 490v99q0 91 30 138.5t87 57.5q12 2 18 2q31 0 60.5 -17.5t48.5 -47t21 -65.5q1 -13 -4 -23.5t-17 -10.5q-21 0 -23 35q-4 59 -30 90t-61 31q-15 0 -26 -4q-42 -15 -57 -59t-15 -127v-99h228v-434q0 -25 9 -33.5t25 -9.5l36 -3v-10h-172v10l36 3q16 1 25 9.5t9 33.5
v391q0 17 -6.5 24t-23.5 7h-166v-422q0 -25 9 -33.5t25 -9.5l36 -3v-10h-172v10l36 3q16 1 25 9.5t9 33.5v422h-73v12h73z" />
    <glyph glyph-name="fl.liga" unicode="fl" horiz-adv-x="423" 
d="M83 490v99q0 91 30 138.5t87 57.5q6 1 17 1q45 0 81 -33l45 30v-727q0 -25 9 -33.5t25 -9.5l36 -3v-10h-172v10l36 3q16 1 25 9.5t9 33.5v422h-196v-422q0 -25 9 -33.5t25 -9.5l36 -3v-10h-172v10l36 3q16 1 25 9.5t9 33.5v422h-73v12h73zM311 658q0 58 -29.5 89.5
t-67.5 31.5q-16 0 -27 -4q-42 -15 -57 -59t-15 -127v-99h196v168z" />
    <glyph glyph-name="fj.liga" unicode="fj" horiz-adv-x="378" 
d="M130 716q-15 -44 -15 -127v-99h216v-546q0 -91 -33 -144t-100 -60v10q60 10 80.5 59.5t20.5 134.5v511q-1 11 -5 17t-15 6h-164v-422q0 -25 9 -33.5t25 -9.5l36 -3v-10h-172v10l36 3q16 1 25 9.5t9 33.5v422h-73v12h73v99q0 91 30 138.5t87 57.5q12 2 18 2
q31 0 60.5 -17.5t48.5 -47t21 -65.5q1 -13 -4 -23.5t-17 -10.5q-21 0 -23 35q-4 59 -30 90t-61 31q-15 0 -26 -4q-42 -15 -57 -59z" />
    <glyph glyph-name=".notdef" horiz-adv-x="497" 
d="M35 0v700h427v-700h-427zM63 680l185 -309l186 309h-371zM261 350l181 -303v605zM236 350l-180 300v-601zM249 329l-185 -308h370z" />
    <glyph glyph-name=".null" horiz-adv-x="280" 
 />
    <glyph glyph-name="nonmarkingreturn" horiz-adv-x="280" 
 />
    <glyph glyph-name="space" unicode=" " horiz-adv-x="250" 
 />
    <glyph glyph-name="exclam" unicode="!" horiz-adv-x="130" 
d="M48 699.5q7 9.5 17 9.5q9 0 16.5 -9.5t6.5 -22.5l-18 -504h-10l-18 504q-1 13 6 22.5zM40.5 0.5q-10.5 10.5 -10.5 24.5t10.5 24.5t24.5 10.5t24.5 -10.5t10.5 -24.5t-10.5 -24.5t-24.5 -10.5t-24.5 10.5z" />
    <glyph glyph-name="quotedbl" unicode="&#x22;" horiz-adv-x="209" 
d="M52 671q-12 48 -12 75q0 16 5.5 26.5t16.5 10.5q9 0 15 -11t6 -26q0 -21 -6.5 -47t-7.5 -31l-5 -22h-7zM138 671q-12 48 -12 75q0 16 5.5 26.5t16.5 10.5q9 0 15 -11t6 -26q0 -21 -6.5 -47t-7.5 -31l-5 -22h-7z" />
    <glyph glyph-name="numbersign" unicode="#" horiz-adv-x="441" 
d="M96 235h-65v11h67l38 236h-105v12h107l37 228h12l-37 -228h174l38 228h11l-37 -228h73v-12h-75l-38 -236h113v-11h-115l-38 -235h-12l38 235h-175l-38 -235h-11zM284 246l39 236h-175l-39 -236h175z" />
    <glyph glyph-name="dollar" unicode="$" horiz-adv-x="438" 
d="M400 170q0 -56 -24 -97.5t-63 -63t-81 -21.5h-13v-59h-11v60q-33 4 -54.5 16.5t-45.5 33.5q-8 7 -16 12.5t-13 5.5q-10 0 -14 -11.5t-3 -45.5h-9l-17 229h11q0 -1 8 -50t50 -108t103 -68v359q-82 45 -115.5 85.5t-33.5 99.5q0 34 17 72t50.5 65t81.5 28v51h11v-51
q24 -2 42.5 -10.5t38.5 -22.5q17 -12 24 -12q11 0 11 33h8l19 -180h-10q0 1 -8 42t-42 87.5t-83 50.5v-304q9 -4 27 -14q154 -77 154 -212zM117.5 477q29.5 -39 90.5 -74v297q-67 -1 -93.5 -44.5t-26.5 -91.5t29.5 -87zM340.5 260q-26.5 46 -100.5 85q-14 8 -21 11v-354
q4 -1 13 -1q65 0 100 47.5t35 112.5q0 53 -26.5 99z" />
    <glyph glyph-name="percent" unicode="%" horiz-adv-x="675" 
d="M87.5 401q-26.5 24 -42 66t-15.5 91q0 50 15 92t41 67t57 25t57.5 -24.5t42 -66t15.5 -91.5t-15.5 -91.5t-41 -66.5t-56.5 -25t-57.5 24zM516 737h12l-380 -737h-12zM192 408q22 24 35.5 64.5t13.5 87.5t-14 87.5t-36.5 64t-47.5 23.5t-47 -24t-35.5 -64.5t-13.5 -87.5
t13.5 -87.5t36.5 -64t48 -23.5t47 24zM471.5 18q-26.5 24 -42 66t-15.5 92q0 49 15.5 91t41.5 67t57 25t57 -24.5t41.5 -66t15.5 -91.5t-15 -91.5t-41 -66.5t-57 -25t-57.5 24zM576 25q22 24 35.5 64.5t13.5 87.5t-13.5 87.5t-36 64t-47.5 23.5t-47.5 -23.5t-36 -63
t-13.5 -86.5q0 -48 13.5 -89t36 -65t48.5 -24q25 0 47 24z" />
    <glyph glyph-name="ampersand" unicode="&#x26;" horiz-adv-x="599" 
d="M499 393q-11 -6 -14.5 -14t-6.5 -24q-17 -80 -43 -140t-68 -118q65 -82 113 -82q38 0 58 34.5t20 93.5h10q2 -65 -22 -110t-79 -45q-52 0 -120 83q-33 -37 -75.5 -60t-88.5 -23q-71 0 -112 42.5t-41 105.5q0 49 39.5 104.5t110.5 121.5l-1 2q-19 47 -30.5 98t-11.5 91
q0 39 16 75.5t45.5 59.5t68.5 23q34 0 60.5 -17t41 -43.5t14.5 -52.5q0 -43 -28 -85t-104 -105l-40 -34q31 -72 70 -143.5t79 -123.5q33 50 55.5 116t29.5 137q2 20 -5 29.5t-37 12.5l-36 3v10h202v-10l-37 -4q-22 -2 -33 -8zM179.5 468q9.5 -44 26.5 -83l30 27q1 1 17 14
q43 37 64.5 67t27.5 54.5t6 54.5q0 38 -20.5 69t-63.5 31q-48 0 -72.5 -45.5t-24.5 -104.5q0 -40 9.5 -84zM339 80q-43 53 -84.5 127t-69.5 143q-56 -52 -88 -99.5t-32 -92.5q0 -69 39 -107t94 -38q83 0 141 67z" />
    <glyph glyph-name="quotesingle" unicode="'" horiz-adv-x="138" 
d="M88 577q-18 -25 -53 -39v12q47 19 49 76q-9 -7 -18 -7q-14 0 -24.5 10.5t-10.5 24.5t10.5 24.5t24.5 10.5q19 0 29.5 -15.5t10.5 -37.5q0 -34 -18 -59z" />
    <glyph glyph-name="quotesingle" unicode="&#x2019;" horiz-adv-x="138" 
d="M88 577q-18 -25 -53 -39v12q47 19 49 76q-9 -7 -18 -7q-14 0 -24.5 10.5t-10.5 24.5t10.5 24.5t24.5 10.5q19 0 29.5 -15.5t10.5 -37.5q0 -34 -18 -59z" />
    <glyph glyph-name="quotesingle" unicode="&#x2018;" horiz-adv-x="138" 
d="M88 577q-18 -25 -53 -39v12q47 19 49 76q-9 -7 -18 -7q-14 0 -24.5 10.5t-10.5 24.5t10.5 24.5t24.5 10.5q19 0 29.5 -15.5t10.5 -37.5q0 -34 -18 -59z" />
    <glyph glyph-name="parenleft" unicode="(" horiz-adv-x="278" 
d="M93.5 69q-63.5 123 -63.5 291t63.5 291t154.5 187v-12q-82 -58 -139 -177.5t-57 -288.5t57 -288.5t139 -176.5v-13q-91 64 -154.5 187z" />
    <glyph glyph-name="parenright" unicode=")" horiz-adv-x="278" 
d="M169 71.5q57 119.5 57 288.5t-57 288.5t-139 177.5v12q91 -64 154.5 -187t63.5 -291t-63.5 -291t-154.5 -187v13q82 57 139 176.5z" />
    <glyph glyph-name="asterisk" unicode="*" horiz-adv-x="362" 
d="M349.5 652.5q10.5 -8.5 10.5 -19.5q0 -12 -10 -20.5t-26 -8.5q-9 0 -41 9q-4 1 -29.5 7.5t-45.5 6.5h-14l10 -10q13 -13 35.5 -26.5t26.5 -16.5q30 -17 36 -23q12 -12 12 -28q0 -9 -6 -17q-7 -7 -19 -7q-15 0 -27 12q-5 5 -24 37q-3 5 -16.5 27t-25.5 34l-10 10v-14
q0 -20 6.5 -45.5t7.5 -29.5q9 -31 9 -41q0 -15 -8 -25.5t-19 -10.5q-12 0 -20.5 10t-8.5 24q0 5 8 39q1 6 7.5 32.5t6.5 46.5v14l-10 -10q-14 -13 -28 -37t-16 -27q-18 -30 -22 -34q-12 -12 -28 -12q-11 0 -17 6q-8 8 -8 19q0 14 13 27q6 6 36 23q4 3 26.5 16.5t35.5 26.5
l9 9h-13q-24 1 -78 -14q-32 -8 -38 -8q-15 0 -25.5 8.5t-10.5 20.5t10.5 20t25.5 7q5 0 41 -8q48 -14 75 -14h12l-9 9q-16 17 -63 45q-29 17 -34 22q-12 12 -12 27q0 12 7 19q8 6 17 6q15 0 27 -13q7 -7 25 -36q25 -44 42 -61l9 -9v14q1 22 -14 76q-8 34 -8 40
q0 15 8.5 25.5t20.5 10.5q11 0 19 -10t8 -24q0 -5 -8 -39q-1 -6 -7.5 -32.5t-6.5 -46.5v-14l10 10q14 13 28 37t16 27q18 30 22 34q12 12 28 12q11 0 18 -7t7 -18q0 -15 -13 -27q-6 -6 -36 -23q-4 -3 -26.5 -16.5t-35.5 -26.5l-11 -11h15q20 0 76 14q31 9 40 9
q15 0 25.5 -8.5z" />
    <glyph glyph-name="plus" unicode="+" horiz-adv-x="469" 
d="M229 294h-199v11h199v199h11v-199h199v-11h-199v-199h-11v199z" />
    <glyph glyph-name="comma" unicode="," horiz-adv-x="155" 
d="M93 -3q-7 -6 -18 -6q-14 0 -24.5 10t-10.5 25q0 14 10.5 24t24.5 10q19 0 29.5 -15.5t10.5 -37.5q0 -69 -71 -98v13q49 18 49 75z" />
    <glyph glyph-name="hyphen" unicode="-" horiz-adv-x="394" 
d="M40 311h314v-11h-314v11z" />
    <glyph glyph-name="period" unicode="." horiz-adv-x="150" 
d="M50.5 0.5q-10.5 10.5 -10.5 24.5t10.5 24.5t24.5 10.5t24.5 -10.5t10.5 -24.5t-10.5 -24.5t-24.5 -10.5t-24.5 10.5z" />
    <glyph glyph-name="slash" unicode="/" horiz-adv-x="256" 
d="M213 678h12l-182 -723h-12z" />
    <glyph glyph-name="zero" unicode="0" horiz-adv-x="509" 
d="M148.5 34.5q-49.5 48.5 -79 131t-29.5 180.5q0 97 28.5 179t77.5 131t107 49t107.5 -47.5t79 -129.5t29.5 -179t-28.5 -180.5t-77.5 -133t-107 -49.5t-107.5 48.5zM344.5 43q41.5 49 66 131t24.5 175t-25 173t-67 127.5t-89 47.5q-48 0 -89.5 -48.5t-66 -129
t-24.5 -173.5t25.5 -174t67.5 -129.5t89 -48.5t88.5 49z" />
    <glyph glyph-name="one" unicode="1" horiz-adv-x="291" 
d="M87 13q23 1 32 12t9 36v539q0 27 -14 27q-11 0 -35 -19l-63 -51l-3 12l132 119h15v-627q1 -25 10 -36t34 -12l77 -3v-10h-271v10z" />
    <glyph glyph-name="two" unicode="2" horiz-adv-x="433" 
d="M317 430.5q29 61.5 29 117.5q0 50 -27.5 97t-98.5 47q-36 0 -63.5 -19t-42.5 -48.5t-15 -60.5q0 -16 -9 -27.5t-19 -11.5q-21 0 -21 28q0 27 21.5 63.5t61.5 62.5t93 26q51 0 87.5 -25t54 -62t16.5 -71q-2 -59 -25 -104.5t-81 -122.5l-216 -288h210q55 0 81.5 22.5
t38.5 73.5l9 40h12l-31 -168h-362l201 276q67 93 96 154.5z" />
    <glyph glyph-name="three" unicode="3" horiz-adv-x="468" 
d="M115.5 13.5q-41.5 25.5 -63.5 67t-22 86.5q0 65 43 108q11 11 22 11q8 0 14 -6q7 -7 7 -15q0 -12 -13 -25q-18 -18 -27.5 -42.5t-9.5 -50.5q0 -38 18 -72t52 -55t81 -21q49 0 90.5 25t65.5 69.5t24 101.5q0 99 -45 146.5t-112 47.5q-30 0 -58 -9q-2 -1 -6 -1
q-7 0 -13.5 3.5t-7.5 7.5l-1 3q0 6 6 10.5t17 3.5q83 -4 127 37t44 109q0 55 -30.5 98.5t-92.5 43.5q-50 0 -83.5 -31t-33.5 -76q0 -12 3 -24q1 -5 1 -12q0 -13 -6.5 -20t-14.5 -7q-10 0 -19 11.5t-9 27.5q1 37 22 69.5t58 52t83 19.5q60 0 95.5 -25.5t49.5 -60.5t14 -68
q0 -52 -41 -95.5t-96 -55.5q57 -6 100 -36t66.5 -75t23.5 -94q0 -60 -31 -107t-83 -73.5t-112 -26.5q-55 0 -96.5 25.5z" />
    <glyph glyph-name="four" unicode="4" horiz-adv-x="492" 
d="M244 13q21 1 32 10.5t11 37.5v147h-267v31l267 449h32v-450q39 0 81 4q28 2 35 2q13 0 18 -2t7.5 -6.5t0.5 -9.5q-5 -12 -16.5 -16.5t-32.5 -4.5l-33 1q-34 2 -60 2v-147q0 -28 11.5 -37.5t32.5 -10.5l77 -3v-10h-271v10zM287 238v414l-249 -414h249z" />
    <glyph glyph-name="five" unicode="5" horiz-adv-x="466" 
d="M129 7.5q-40 19.5 -65.5 51.5t-32.5 70q-1 4 -1 11q0 28 21 28q10 0 19 -11.5t9 -27.5q0 -31 16.5 -61.5t49 -50.5t76.5 -20q78 0 123 59.5t45 151.5q0 62 -26.5 112.5t-72 80t-99.5 29.5q-62 0 -117 -37l48 293h232q10 0 18 -4.5t9 -11.5v-3q0 -7 -5 -11t-14 -3l-18 1
l-191 24l-42 -257q56 23 108 23q62 0 109 -32.5t72.5 -87.5t25.5 -121q0 -59 -27.5 -108.5t-75 -78t-105.5 -28.5q-49 0 -89 19.5z" />
    <glyph glyph-name="six" unicode="6" horiz-adv-x="456" 
d="M89.5 77.5q-49.5 89.5 -49.5 234.5q0 115 23 204t68.5 139t110.5 50q49 0 83 -23t52 -55t23 -63q1 -4 1 -11q0 -28 -21 -28q-10 0 -19 11.5t-9 27.5q0 31 -13.5 60.5t-39.5 48.5t-62 19q-72 0 -118.5 -93t-46.5 -298q14 75 61 124.5t107 49.5q52 0 95 -32.5t67 -88
t24 -122.5t-24 -123t-66.5 -88.5t-94.5 -32.5q-102 0 -151.5 89.5zM316.5 29.5q35.5 29.5 56.5 82t21 117.5q0 61 -23.5 112t-60 80.5t-73.5 29.5q-39 0 -74.5 -21t-60 -73.5t-24.5 -140.5q0 -53 19 -102.5t55 -81.5t85 -32q44 0 79.5 29.5z" />
    <glyph glyph-name="seven" unicode="7" horiz-adv-x="391" 
d="M88 9q0 12 7 29l260 620h-237q-27 0 -40 -4t-21 -16.5t-15 -40.5l-21 -90h-11l28 182l343 -2l-241 -660q-8 -22 -18 -31.5t-21 -6.5q-13 4 -13 20z" />
    <glyph glyph-name="eight" unicode="8" horiz-adv-x="475" 
d="M399 319q46 -58 46 -128q0 -57 -28 -104t-75 -73t-103 -26q-57 0 -105 27t-76 73.5t-28 105.5q1 81 50 128t129 75q-66 30 -100.5 68.5t-34.5 91.5q0 39 23 73.5t61.5 54.5t82.5 20t81.5 -20t59.5 -54t22 -74q0 -101 -133 -150q82 -30 128 -88zM146 475q44 -40 111 -63
q113 51 114 147q1 59 -37.5 97t-94.5 38q-55 0 -95 -34.5t-41 -88.5q-1 -56 43 -96zM326 22q40 22 64 63t24 96q0 61 -40.5 114.5t-122.5 84.5l-28 11q-66 -21 -111.5 -69.5t-45.5 -127.5q0 -56 23.5 -100.5t63 -69t86.5 -24.5t87 22z" />
    <glyph glyph-name="nine" unicode="9" horiz-adv-x="457" 
d="M107.5 32q-37.5 44 -48.5 97q-1 4 -1 11q0 28 21 28q10 0 19 -11.5t9 -27.5q0 -31 13.5 -60t40 -47t62.5 -18q162 0 162 388q-14 -75 -61 -124.5t-107 -49.5q-52 0 -95 32.5t-67.5 88.5t-24.5 123t24 122.5t67 88t95 32.5q102 0 151.5 -90t49.5 -236q0 -163 -46 -277
t-156 -114q-70 0 -107.5 44zM294.5 263q35.5 21 60 73.5t24.5 140.5q0 53 -19 102.5t-55 81.5t-85 32q-44 0 -80.5 -29t-58 -81t-21.5 -117q0 -61 24 -112.5t61.5 -81.5t74.5 -30q39 0 74.5 21z" />
    <glyph glyph-name="colon" unicode=":" horiz-adv-x="132" 
d="M41.5 376.5q-10.5 10.5 -10.5 24.5t10.5 24.5t24.5 10.5t24.5 -10.5t10.5 -24.5t-10.5 -24.5t-24.5 -10.5t-24.5 10.5zM41.5 0.5q-10.5 10.5 -10.5 24.5t10.5 24.5t24.5 10.5t24.5 -10.5t10.5 -24.5t-10.5 -24.5t-24.5 -10.5t-24.5 10.5z" />
    <glyph glyph-name="semicolon" unicode=";" horiz-adv-x="138" 
d="M44 376.5q-10 10.5 -10 24.5t10 24.5t25 10.5q14 0 24 -10.5t10 -24.5t-10 -24.5t-24 -10.5q-15 0 -25 10.5zM84 -3q-7 -6 -18 -6q-14 0 -24.5 10t-10.5 24q0 15 10.5 25t24.5 10q19 0 29.5 -15.5t10.5 -37.5q0 -69 -71 -98v12q49 21 49 76z" />
    <glyph glyph-name="less" unicode="&#x3c;" horiz-adv-x="427" 
d="M31 294v13l365 174v-13l-352 -168l352 -167v-13z" />
    <glyph glyph-name="equal" unicode="=" horiz-adv-x="469" 
d="M30 399h409v-12h-409v12zM30 212h409v-11h-409v11z" />
    <glyph glyph-name="greater" unicode="&#x3e;" horiz-adv-x="427" 
d="M31 133l352 167l-352 168v13l365 -174v-13l-365 -174v13z" />
    <glyph glyph-name="question" unicode="?" horiz-adv-x="321" 
d="M146 201q0 69 16.5 112t48.5 92q27 40 40 71.5t13 77.5q0 73 -28.5 109t-73.5 36q-50 0 -74 -36.5t-20 -108.5q1 -16 -5 -27.5t-19 -11.5q-10 0 -16 8.5t-7 20.5q-3 41 15.5 79.5t52.5 62t75 23.5q36 0 67.5 -18.5t50.5 -54t19 -82.5q0 -57 -17 -92.5t-52 -80.5
q-26 -32 -41.5 -57t-25.5 -62.5t-9 -88.5h-9q-1 10 -1 28zM127.5 0.5q-10.5 10.5 -10.5 24.5t10.5 24.5t24.5 10.5t24.5 -10.5t10.5 -24.5t-10.5 -24.5t-24.5 -10.5t-24.5 10.5z" />
    <glyph glyph-name="at" unicode="@" horiz-adv-x="819" 
d="M502.5 -129.5q-58.5 -19.5 -119.5 -19.5q-72 0 -139 26.5t-117.5 77t-74.5 119.5q-22 62 -22 128q0 81 31.5 158t89.5 140t135 100t159 37q72 0 138 -28.5t115.5 -80t74.5 -120.5q16 -44 16 -97q0 -76 -29 -151t-76.5 -123.5t-98.5 -48.5q-27 0 -44.5 17t-17.5 53
q0 14 3 30l11 66q-27 -72 -80.5 -119t-110.5 -47q-46 0 -82.5 25.5t-57 71t-20.5 103.5q0 22 5 54q12 71 47.5 130.5t85.5 94.5t103 35t91 -39.5t51 -101.5l20 123h30l-64 -396q-3 -15 -3 -27q0 -51 45 -51q40 0 78 41t61 107t23 134q0 56 -15 100q-24 70 -72 121t-110.5 78
t-129.5 27q-72 0 -141 -32q-64 -30 -115.5 -88.5t-80.5 -134t-29 -153.5q0 -65 20 -122q35 -102 119 -160t187 -58q113 0 210 68l10 -10q-51 -38 -109.5 -57.5zM441 43.5q42 28.5 71 81.5t39 123q4 34 4 50q0 55 -17 98.5t-46.5 68.5t-66.5 25q-43 0 -85 -33.5t-72.5 -90.5
t-41.5 -125q-4 -25 -4 -54q0 -53 17 -92.5t46.5 -60.5t66.5 -20q47 1 89 29.5z" />
    <glyph glyph-name="A" unicode="A" horiz-adv-x="664" 
d="M654 10v-10h-221v10l44 3q19 2 29.5 7.5t10.5 20.5q0 4 -4 20l-72 226l-230 1l-72 -227q-4 -16 -4 -20q0 -15 11 -21t29 -7l50 -3v-10h-214v10l46 3q24 2 41.5 11.5t26.5 36.5l204 639h14l204 -639q9 -27 26.5 -36.5t41.5 -11.5zM214 298h224l-112 352z" />
    <glyph glyph-name="B" unicode="B" horiz-adv-x="568" 
d="M58 13q24 2 38 11.5t14 36.5v578q0 28 -11 37.5t-32 10.5l-57 3v10h259q69 0 115.5 -22t69 -57.5t22.5 -77.5q0 -58 -42 -103t-116 -55q71 -3 121 -30t74.5 -69.5t24.5 -89.5q0 -52 -29 -96.5t-86 -72t-138 -27.5h-275v10zM400.5 434.5q39.5 43.5 38.5 108.5
q-1 67 -42 106.5t-130 39.5h-125v-298h144q75 0 114.5 43.5zM402 35q49 24 74 66t24 95q-1 82 -57 132.5t-161 50.5h-140v-318q0 -21 8 -31.5t28 -14.5t60 -4h46q69 0 118 24z" />
    <glyph glyph-name="C" unicode="C" horiz-adv-x="734" 
d="M205 36q-80 48 -127.5 131t-47.5 181t47.5 181.5t128 132.5t173.5 49q94 0 171.5 -40.5t131.5 -122.5l-84 -129l-8 5l28 59q10 20 10 42q0 42 -30 75q-43 47 -98 73.5t-115 26.5q-10 0 -32 -2q-83 -9 -147.5 -55t-100.5 -118t-36 -157q0 -28 2 -43q10 -87 56 -158.5
t115.5 -112.5t145.5 -41q71 0 136 32.5t110.5 91t59.5 133.5h10q-11 -78 -57 -142.5t-116 -102t-151 -37.5q-95 0 -175 48z" />
    <glyph glyph-name="D" unicode="D" horiz-adv-x="596" 
d="M59 13q24 2 37.5 11.5t14.5 36.5v578q1 27 -13.5 36.5t-38.5 11.5l-48 3l1 10h201q113 0 192.5 -46.5t120 -124t40.5 -167.5q0 -93 -38 -176t-114 -134.5t-184 -51.5h-219v10zM388.5 59q69.5 48 106 128.5t35.5 175.5q-1 93 -39.5 167t-111 116t-169.5 42h-67v-627
q0 -30 20.5 -40t61.5 -10q94 0 163.5 48z" />
    <glyph glyph-name="E" unicode="E" horiz-adv-x="496" 
d="M58 13q24 2 38 11.5t14 36.5v578q0 27 -14 36.5t-38 11.5l-48 3v10h424l23 -133h-10q-12 53 -24.5 78t-33 34t-58.5 9h-189v-297h187q19 0 33 12.5t15 31.5l4 46h10v-191h-10l-4 46q-1 19 -15 31t-33 12h-187v-318q0 -48 52 -48h154q41 0 63 9.5t37 39t28 93.5h10
l-25 -155h-451v10z" />
    <glyph glyph-name="F" unicode="F" horiz-adv-x="467" 
d="M58 13q24 2 38 11.5t14 36.5v578q0 27 -14 36.5t-38 11.5l-48 3v10h424l23 -133h-10q-12 53 -24.5 78t-33 34t-58.5 9h-189v-297h187q19 0 33 12.5t15 31.5l4 46h10v-191h-10l-4 46q-1 19 -15 31t-33 12h-187v-318q0 -27 14 -36.5t38 -11.5l48 -3v-10h-232v10z" />
    <glyph glyph-name="G" unicode="G" horiz-adv-x="769" 
d="M197 36q-78 48 -122.5 130t-44.5 181q0 98 47.5 182.5t128 134t173.5 49.5q94 0 171.5 -40.5t131.5 -122.5l-84 -129l-8 5l28 59q10 20 10 42q0 42 -30 75q-43 47 -98 73.5t-115 26.5q-10 0 -32 -2q-84 -9 -149.5 -55.5t-102.5 -119.5t-37 -158q0 -28 2 -42
q10 -88 56 -159t115 -112t145 -41q60 0 119 23.5t98 71.5t39 118v11q0 28 -11 38t-32 10l-204 3v10h358v-10l-37 -3q-22 -2 -32.5 -11t-10.5 -37v-237h-32l1 156q-7 -35 -43.5 -74.5t-95.5 -66.5t-130 -27q-94 0 -172 48z" />
    <glyph glyph-name="H" unicode="H" horiz-adv-x="642" 
d="M58 13q24 2 38 11.5t14 36.5v578q0 27 -14 36.5t-38 11.5l-48 3v10h232v-10l-48 -3q-24 -2 -38 -11.5t-14 -36.5v-248h358v248q0 27 -14 36.5t-38 11.5l-48 3v10h232v-10l-48 -3q-24 -2 -38 -11.5t-14 -36.5v-578q0 -27 14 -36.5t38 -11.5l48 -3v-10h-232v10l48 3
q24 2 38 11.5t14 36.5v318h-358v-318q0 -27 14 -36.5t38 -11.5l48 -3v-10h-232v10z" />
    <glyph glyph-name="I" unicode="I" horiz-adv-x="252" 
d="M58 13q24 2 38 11.5t14 36.5v578q0 27 -14 36.5t-38 11.5l-48 3v10h232v-10l-48 -3q-24 -2 -38 -11.5t-14 -36.5v-578q0 -27 14 -36.5t38 -11.5l48 -3v-10h-232v10z" />
    <glyph glyph-name="J" unicode="J" horiz-adv-x="253" 
d="M90.5 -158.5q20.5 49.5 20.5 134.5v663q0 13 -7 24.5t-18 18.5q-8 3 -27 5l-48 3v10h232v-10l-48 -3q-18 -2 -26 -5q-12 -6 -19 -17.5t-7 -25.5v-663q0 -91 -33 -144t-100 -60v10q60 10 80.5 59.5z" />
    <glyph glyph-name="K" unicode="K" horiz-adv-x="613" 
d="M603 10v-10h-230v10l30 3q45 5 45 25q0 10 -10 23l-245 320l-51 -58v-262q0 -27 14 -36.5t38 -11.5l48 -3v-10h-232v10l48 3q24 2 38 11.5t14 36.5v578q0 27 -14 36.5t-38 11.5l-48 3v10h232v-10l-48 -3q-24 -2 -38 -11.5t-14 -36.5v-296l262 296q15 16 15 28
q0 18 -37 20l-46 3l2 10h215l-2 -10l-39 -3q-23 -2 -45 -11.5t-45 -36.5l-207 -234l263 -339q22 -29 46.5 -39.5t52.5 -13.5z" />
    <glyph glyph-name="L" unicode="L" horiz-adv-x="470" 
d="M58 13q24 2 38 11.5t14 36.5v578q0 28 -11 37.5t-32 10.5l-57 3v10h232v-10l-56 -3q-22 -1 -33 -10.5t-11 -37.5v-578q0 -21 8 -31.5t28 -14.5t60 -4q89 0 130.5 14.5t56 42t25.5 87.5h10l-25 -155h-425v10z" />
    <glyph glyph-name="M" unicode="M" horiz-adv-x="743" 
d="M96.5 23.5q14.5 9.5 14.5 37.5v578q0 27 -14 36.5t-38 11.5l-40 3v10h114l242 -649l241 649h108v-10l-40 -3q-24 -2 -38 -11.5t-14 -36.5v-578q0 -28 14.5 -37.5t37.5 -10.5l49 -3v-10h-233v10l47 3q24 2 38 11.5t14 36.5v552l-229 -614h-16l-229 614v-552
q0 -27 14 -36.5t38 -11.5l47 -3v-10h-214v10l49 3q23 1 37.5 10.5z" />
    <glyph glyph-name="N" unicode="N" horiz-adv-x="614" 
d="M58 13q24 2 38 11.5t14 36.5v578q0 27 -14 36.5t-38 11.5l-48 3v10h112l368 -623v562q0 27 -14 36.5t-38 11.5l-48 3v10h214v-10l-48 -3q-24 -2 -38 -11.5t-14 -36.5v-639h-10l-370 629v-568q0 -27 14 -36.5t38 -11.5l48 -3v-10h-214v10z" />
    <glyph glyph-name="O" unicode="O" horiz-adv-x="780" 
d="M392 -12q-102 0 -191.5 54.5t-135.5 150.5q-35 73 -35 155q0 103 54 192t149 135q73 35 154 35q103 0 191.5 -54.5t135.5 -150.5q36 -73 36 -157q0 -102 -54 -190.5t-149 -134.5q-73 -35 -155 -35zM671 155q49 86 49 185q0 80 -34 151q-31 62 -83.5 107.5t-116 69.5
t-127.5 24q-69 0 -122 -26q-78 -37 -127 -123.5t-49 -186.5q0 -80 33 -149q30 -63 82.5 -108.5t116.5 -69.5t128 -24q67 0 123 27q78 37 127 123z" />
    <glyph glyph-name="P" unicode="P" horiz-adv-x="519" 
d="M58 13q24 2 38 11.5t14 36.5v578q0 27 -14 36.5t-38 11.5l-48 3v10h276q65 0 111 -22t69 -58t23 -77t-23 -78.5t-68 -61t-108 -23.5h-148v-319q0 -27 14 -36.5t38 -11.5l48 -3v-10h-232v10zM411 434.5q42 42.5 42 108.5t-43 105.5t-127 39.5h-141v-296h147q80 0 122 42.5
z" />
    <glyph glyph-name="Q" unicode="Q" horiz-adv-x="791" 
d="M408 -54.5q24 20.5 40 47.5q-25 -4 -56 -4q-103 0 -192 54t-135 150q-35 73 -35 155q0 103 54 192t149 135q73 35 154 35q103 0 191.5 -54.5t135.5 -150.5q36 -73 36 -158q0 -103 -54 -191.5t-149 -132.5q-35 -17 -70 -24q-16 -29 -57 -61q8 4 42.5 20t72.5 26t75 10
q77 0 151 -43q1 -1 -3 -8t-7 -13l-11 -19q-74 63 -163 63q-95 0 -198 -72l-9 18q14 5 38 25.5zM543 32q79 38 128 124.5t49 184.5q0 79 -34 150q-31 62 -83.5 107.5t-116 69.5t-127.5 24q-69 0 -122 -26q-78 -37 -127 -123.5t-49 -186.5q0 -80 33 -149q28 -59 76.5 -103
t108.5 -70q-13 23 -13 45q0 47 33 75.5t82 28.5q25 0 51.5 -13.5t44.5 -40t18 -63.5q0 -30 -11 -55q25 5 59 21zM421 5q24 0 35 1q12 27 12 52q0 54 -30.5 83.5t-73.5 29.5q-34 0 -59 -23.5t-25 -58.5t30.5 -55.5t74.5 -27.5q12 -1 36 -1z" />
    <glyph glyph-name="R" unicode="R" horiz-adv-x="580" 
d="M565 130q-8 -70 -26.5 -106t-57.5 -36q-28 0 -44.5 20t-28.5 60l-51 168q-15 50 -29.5 78.5t-43 47t-76.5 18.5h-66v-319q0 -27 14 -36.5t38 -11.5l48 -3v-10h-232v10l48 3q24 2 38 11.5t14 36.5v578q0 27 -14 36.5t-38 11.5l-48 3v10h266q66 0 112.5 -21t70.5 -57
t24 -80q0 -67 -54.5 -111.5t-163.5 -48.5q54 -14 80.5 -48.5t45.5 -97.5l51 -163q9 -28 21 -44.5t31 -16.5q23 0 37.5 27.5t23.5 90.5h10zM263 392q56 0 97.5 20t64 54t22.5 76q0 64 -49 105t-135 41h-121v-296h121z" />
    <glyph glyph-name="S" unicode="S" horiz-adv-x="489" 
d="M189 2q-33 14 -65 37q-26 19 -38 19t-17 -10.5t-2 -47.5h-11l-26 233h13q6 -39 27.5 -91t71.5 -96t130 -44q53 0 90 21.5t55.5 56.5t18.5 76q0 53 -36.5 100.5t-128.5 89.5q-81 37 -127.5 69.5t-67 67t-20.5 78.5q0 36 19 71t57.5 57t93.5 22q32 0 57 -10t55 -28
q27 -16 35 -16t11.5 10t3.5 33h10l21 -202h-12q-5 43 -31 90.5t-66.5 79.5t-86.5 32q-64 0 -101.5 -38t-37.5 -93q0 -56 46 -98.5t148 -87.5q96 -42 143.5 -95t47.5 -120q0 -55 -27.5 -96t-72.5 -62.5t-96 -21.5t-84 14z" />
    <glyph glyph-name="T" unicode="T" horiz-adv-x="482" 
d="M173 13q24 2 38 11.5t14 36.5v627h-89q-38 0 -58.5 -9t-33 -34t-24.5 -78h-10l23 133h416l23 -133h-10q-12 53 -24.5 78t-33 34t-58.5 9h-89v-627q0 -27 14 -36.5t38 -11.5l48 -3v-10h-232v10z" />
    <glyph glyph-name="U" unicode="U" horiz-adv-x="630" 
d="M216.5 17q-48.5 29 -76.5 81t-28 119v422q0 27 -14.5 36.5t-38.5 11.5l-48 3l-1 10h232l1 -10l-48 -3q-24 -2 -37.5 -11.5t-13.5 -36.5v-422q0 -63 25 -110t67 -71.5t91 -24.5t90 24.5t65.5 71.5t24.5 110v422q0 27 -14.5 36.5t-38.5 11.5l-48 3l-1 10h214l1 -10l-48 -3
q-24 -2 -37.5 -11.5t-13.5 -36.5v-422q0 -65 -25.5 -117.5t-70.5 -82t-101 -29.5q-59 0 -107.5 29z" />
    <glyph glyph-name="V" unicode="V" horiz-adv-x="671" 
d="M661 700v-10l-46 -3q-24 -2 -41.5 -11.5t-26.5 -36.5l-204 -639h-15l-204 639q-9 27 -26.5 36.5t-41.5 11.5l-46 3v10h234v-10l-50 -3q-18 -1 -29 -7t-11 -21q0 -4 4 -20l187 -588l187 588q4 16 4 20q0 15 -11 21t-29 7l-50 3v10h215z" />
    <glyph glyph-name="W" unicode="W" horiz-adv-x="954" 
d="M944 700v-10l-55 -4q-37 -2 -48 -34l-227 -652h-13l-126 340l-118 -340h-12l-242 654q-12 31 -49 33l-44 3v10h196v-10l-44 -3q-11 -1 -20 -7t-9 -16q0 -7 2 -11l225 -609l109 313l-110 298q-11 31 -45 33l-42 2v10h192v-10l-46 -3q-11 -1 -19.5 -7t-8.5 -16q0 -7 2 -11
l93 -251l87 251q2 8 2 10q0 10 -9 16t-20 7l-53 4v10h194v-10l-56 -4q-35 -2 -46 -34l-93 -267l126 -341l211 609q2 6 2 10q0 10 -9 16t-20 7l-55 4v10h198z" />
    <glyph glyph-name="X" unicode="X" horiz-adv-x="620" 
d="M609 10l1 -10h-219l-1 10l40 3q22 2 33.5 7t11.5 16q0 10 -9 25l-161 269l-163 -269q-8 -12 -8 -23q0 -13 12 -18t32 -7l47 -3l1 -10h-215l-1 10l38 3q23 2 42.5 11.5t36.5 36.5l171 281l-178 297q-17 28 -32 37t-36 11l-41 3l-1 10h219l1 -10l-40 -3q-22 -2 -33.5 -7
t-11.5 -16q0 -10 9 -25l161 -269l163 269q8 12 8 23q0 13 -12 18t-32 7l-47 3l-1 10h215l1 -10l-38 -3q-24 -2 -43.5 -11.5t-35.5 -36.5l-171 -281l178 -297q17 -28 32 -37t36 -11z" />
    <glyph glyph-name="Y" unicode="Y" horiz-adv-x="615" 
d="M229 700v-10l-40 -3q-23 -2 -34.5 -6.5t-11.5 -14.5q0 -8 11 -27l159 -261l160 261q8 12 8 23q0 13 -12 18t-32 7l-47 3v10h215v-10l-49 -3q-20 -1 -35.5 -10.5t-32.5 -37.5l-170 -280v-298q0 -27 14 -36.5t38 -11.5l47 -3v-10h-232v10l49 3q23 1 37.5 10.5t14.5 37.5
v299l-167 279q-17 28 -32 37t-36 11l-41 3v10h219z" />
    <glyph glyph-name="Z" unicode="Z" horiz-adv-x="475" 
d="M157 688q-51 0 -70 -16.5t-24 -49.5l-11 -70h-9l7 148h381l-359 -689h227q69 0 95.5 17t30.5 50l11 82h9l-7 -160h-408l360 688h-233z" />
    <glyph glyph-name="bracketleft" unicode="[" horiz-adv-x="228" 
d="M31 819h166v-11h-155v-895h155v-12h-166v918z" />
    <glyph glyph-name="backslash" unicode="\" horiz-adv-x="256" 
d="M31 678h12l182 -723h-12z" />
    <glyph glyph-name="bracketright" unicode="]" horiz-adv-x="228" 
d="M31 -88h154v895h-154v12h166v-918h-166v11z" />
    <glyph glyph-name="asciicircum" unicode="^" horiz-adv-x="423" 
d="M205 783h13l174 -320h-13l-168 307l-167 -307h-13z" />
    <glyph glyph-name="underscore" unicode="_" horiz-adv-x="489" 
d="M40 -38h409v-12h-409v12z" />
    <glyph glyph-name="a" unicode="a" horiz-adv-x="534" 
d="M73 18q-33 30 -33 77q0 49 39 90t113 69.5t178 40.5v49q0 68 -37.5 108t-104.5 39q-58 -1 -93.5 -35t-35.5 -91q0 -13 2.5 -25.5t2.5 -17.5q0 -11 -5.5 -19t-15.5 -8q-12 0 -18 11t-5 31q4 61 34.5 98t70.5 52t74 15q82 0 122.5 -44.5t40.5 -120.5l-2 -260q0 -36 8 -51
t24 -15t32 15.5t24 45.5l9 -4q-8 -35 -29 -56.5t-47 -21.5q-24 0 -38.5 17.5t-14.5 54.5q0 70 1 106q-20 -85 -76.5 -132.5t-127.5 -47.5q-59 0 -92 30zM274.5 43q41.5 28 66.5 77t28 112q1 19 1 54q-157 -24 -226 -73.5t-69 -110.5q0 -38 28 -62.5t78 -24.5q52 0 93.5 28z
" />
    <glyph glyph-name="b" unicode="b" horiz-adv-x="532" 
d="M398 467.5q45 -34.5 70 -94t24 -131.5q0 -71 -28 -129t-75.5 -91.5t-103.5 -33.5t-102.5 31.5t-68.5 78.5l-14 -98h-20v724q0 13 -9 21t-20 5l-41 -10v10l101 33v-457q17 75 67 125.5t116 50.5q59 0 104 -34.5zM433.5 362q-22.5 53 -61.5 82.5t-85 29.5q-47 0 -87 -29
t-64 -81.5t-24 -120.5t24 -123.5t64.5 -87.5t86.5 -32q51 0 89 31t58.5 85.5t21.5 124.5q0 68 -22.5 121z" />
    <glyph glyph-name="c" unicode="c" horiz-adv-x="487" 
d="M146.5 21q-49.5 33 -78 91t-28.5 129t30 131t80.5 95t109.5 35q68 0 117.5 -39t61.5 -96q1 -4 1 -10q0 -13 -6 -21t-15 -8q-10 0 -17.5 10t-7.5 29q0 15 -4 32.5t-12 29.5q-41 63 -118 63q-48 0 -90.5 -34t-68 -91.5t-25.5 -125.5q0 -67 27.5 -119t71.5 -81t91 -29
q63 0 107.5 40t69.5 114l10 -3q-12 -42 -38.5 -82t-67 -66.5t-89.5 -26.5q-62 0 -111.5 33z" />
    <glyph glyph-name="d" unicode="d" horiz-adv-x="522" 
d="M512 35v-10l-94 -35v162q-20 -70 -68.5 -117t-111.5 -47q-59 0 -104 34.5t-70 94t-24 131.5q0 71 28 129t75.5 91.5t103.5 33.5t101 -31.5t70 -79.5v333q0 24 -19 24q-4 0 -14 -2l-29 -8v10l94 35v-734q0 -24 19 -24q4 0 14 2zM332 45q40 29 64 81.5t24 120.5t-24 123.5
t-64.5 87.5t-86.5 32q-51 0 -89 -31t-58.5 -85.5t-21.5 -124.5q0 -68 22.5 -121t61.5 -82.5t85 -29.5q47 0 87 29z" />
    <glyph glyph-name="e" unicode="e" horiz-adv-x="485" 
d="M97.5 60q-57.5 72 -57.5 195q0 78 31 134t79.5 84.5t102.5 28.5q50 0 92.5 -23.5t67.5 -61t25 -77.5q0 -23 -7.5 -34.5t-26.5 -15.5t-58 -4h-269q-2 -20 -2 -32q0 -68 23.5 -123t67 -87t101.5 -32q49 0 85.5 25.5t58 60.5t30.5 67l10 -3q-18 -59 -64 -116.5t-129 -57.5
q-103 0 -160.5 72zM386 306q12 8 12 34q0 29 -16 65t-49 61.5t-81 25.5q-65 0 -112.5 -49.5t-61.5 -144.5h257q39 0 51 8z" />
    <glyph glyph-name="f" unicode="f" horiz-adv-x="358" 
d="M83 490v99q0 91 30 138.5t87 57.5q12 2 18 2q31 0 60.5 -17.5t48.5 -47t21 -65.5q1 -13 -4 -23.5t-17 -10.5q-21 0 -23 35q-4 59 -30 90t-61 31q-15 0 -26 -4q-42 -15 -57 -59t-15 -127v-99h174v-12h-174v-422q0 -25 9 -33.5t25 -9.5l36 -3v-10h-172v10l36 3q16 1 25 9.5
t9 33.5v422h-73v12h73z" />
    <glyph glyph-name="g" unicode="g" horiz-adv-x="484" 
d="M389.5 16q45.5 -21 65 -53t19.5 -67q0 -45 -29 -85.5t-84.5 -65.5t-130.5 -25q-66 0 -116 19t-77 52t-27 74q0 61 38.5 95.5t88.5 47.5q-30 0 -56.5 21t-26.5 50q0 49 90 70q-49 24 -80 68.5t-31 98.5q0 51 26.5 93.5t72 67.5t99.5 25q46 0 84 -19l114 7v-11l-56 -14
q-13 -3 -13 -7q0 -2 3.5 -5.5l5.5 -5.5q60 -60 60 -131q0 -51 -26.5 -94t-72 -68.5t-99.5 -25.5q-41 0 -78 17q-32 -10 -52.5 -22.5t-20.5 -33.5q0 -24 28.5 -38t70.5 -14h92q73 0 118.5 -21zM91 231q22 -42 59.5 -67.5t80.5 -25.5t81 25.5t60 67.5t22 88q0 47 -22 87
t-59.5 63t-81.5 23t-81 -23t-59 -63t-22 -87q0 -46 22 -88zM429 -62q-18 31 -58 50t-100 19h-120q-38 -12 -69.5 -42t-34.5 -88q-2 -43 24.5 -76.5t73 -51.5t101.5 -17q52 0 96 19t71 50.5t30 67.5q4 38 -14 69z" />
    <glyph glyph-name="h" unicode="h" 
d="M46 13q16 1 25 9.5t9 33.5v668q0 24 -20 24l-13 -2l-37 -9v10l102 36v-404q14 55 61.5 89t108.5 34q71 0 113 -49.5t42 -143.5v-253q0 -25 9 -33.5t25 -9.5l36 -3v-10h-172v10l36 3q16 1 25 9.5t9 33.5v251q0 88 -38.5 132.5t-97.5 44.5q-45 0 -80.5 -23t-56 -63.5
t-20.5 -90.5v-251q0 -25 9 -33.5t25 -9.5l36 -3v-10h-172v10z" />
    <glyph glyph-name="i" unicode="i" horiz-adv-x="192" 
d="M71.5 600.5q-10.5 10.5 -10.5 24.5t10.5 24.5t24.5 10.5q15 0 25 -10.5t10 -24.5t-10 -24.5t-25 -10.5q-14 0 -24.5 10.5zM46 13q16 1 25 9.5t9 33.5v380q0 24 -19 24q-4 0 -14 -2l-29 -8v10l94 35v-439q0 -25 9 -33.5t25 -9.5l36 -3v-10h-172v10z" />
    <glyph glyph-name="j" unicode="j" horiz-adv-x="202" 
d="M152 649.5q10 -10.5 10 -24.5t-10 -24.5t-25 -10.5q-14 0 -24.5 10.5t-10.5 24.5t10.5 24.5t24.5 10.5q15 0 25 -10.5zM49 460l94 35v-551q0 -91 -33 -144t-100 -60v10q60 10 80.5 59.5t20.5 134.5v492q0 24 -19 24q-4 0 -14 -2l-29 -8v10z" />
    <glyph glyph-name="k" unicode="k" horiz-adv-x="497" 
d="M487 10v-10h-181v10l39 4q13 2 13 10q0 5 -6 12l-200 234l-40 -39v-175q0 -25 9 -33.5t25 -9.5l36 -3v-10h-172v10l36 3q16 1 25 9.5t9 33.5v668q0 24 -20 24l-13 -2l-37 -9v10l102 36v-532l195 192q11 11 11 19q0 6 -5 9.5t-12 4.5l-36 4v10h167v-10l-41 -6
q-37 -6 -56 -23l-160 -158l219 -249q10 -11 24 -19.5t25 -9.5z" />
    <glyph glyph-name="l" unicode="l" horiz-adv-x="203" 
d="M51 13q16 1 25 9.5t9 33.5v668q0 24 -20 24l-13 -2l-37 -9v10l102 36v-727q0 -25 9 -33.5t25 -9.5l36 -3v-10h-172v10z" />
    <glyph glyph-name="m" unicode="m" horiz-adv-x="776" 
d="M46 13q16 1 25 9.5t9 33.5v381q0 24 -20 24l-13 -2l-37 -9v10l102 36v-107q14 51 58 82t90 31q54 0 92 -31.5t48 -90.5q13 54 58.5 88t95.5 34q67 0 104.5 -47t37.5 -126v-273q0 -25 9 -33.5t25 -9.5l36 -3v-10h-172v10l36 3q16 1 25 9.5t9 33.5v268q0 74 -32.5 115.5
t-85.5 41.5q-37 0 -69.5 -18.5t-52.5 -53.5t-20 -83v-270q0 -25 9 -33.5t25 -9.5l36 -3v-10h-172v10l36 3q16 1 25 9.5t9 33.5v268q0 74 -33 115.5t-87 41.5q-59 0 -99.5 -42t-40.5 -114v-269q0 -25 9 -33.5t25 -9.5l36 -3v-10h-172v10z" />
    <glyph glyph-name="n" unicode="n" 
d="M46 13q16 1 25 9.5t9 33.5v381q0 24 -20 24l-13 -2l-37 -9v10l102 36v-125q8 37 34 67t61.5 47t72.5 17q70 0 113.5 -47.5t43.5 -140.5v-258q0 -25 9 -33.5t25 -9.5l36 -3v-10h-172v10l36 3q16 1 25 9.5t9 33.5v251q0 88 -38.5 130t-97.5 42q-45 0 -81 -22t-56 -61
t-20 -89v-251q0 -25 9 -33.5t25 -9.5l36 -3v-10h-172v10z" />
    <glyph glyph-name="o" unicode="o" horiz-adv-x="559" 
d="M161 21.5q-55 33.5 -88 91t-33 128.5t31.5 131t86.5 95t120 35t120.5 -34.5t88 -93.5t32.5 -130t-31.5 -129.5t-86.5 -92.5t-120 -34t-120 33.5zM382 31.5q47 32.5 74.5 88.5t27.5 124q0 67 -29 124.5t-76.5 90.5t-100.5 33t-99.5 -34t-74.5 -91t-28 -125t28.5 -124
t75.5 -87.5t101 -31.5t101 32.5z" />
    <glyph glyph-name="p" unicode="p" horiz-adv-x="530" 
d="M396 467.5q45 -34.5 70 -94t24 -131.5q0 -71 -28 -129t-75.5 -91.5t-103.5 -33.5t-101 31.5t-70 79.5v-293q0 -25 9 -33.5t25 -9.5l36 -3v-10h-172v10l36 3q16 1 25 9.5t9 33.5v630q0 24 -19 24q-4 0 -14 -2l-29 -8v10l94 35v-157q20 70 68.5 117t111.5 47
q59 0 104 -34.5zM431.5 362q-22.5 53 -61.5 82.5t-85 29.5q-47 0 -87 -29t-64 -81.5t-24 -120.5t24 -123.5t64.5 -87.5t86.5 -32q51 0 89 31t58.5 85.5t21.5 124.5q0 68 -22.5 121z" />
    <glyph glyph-name="q" unicode="q" horiz-adv-x="532" 
d="M522 -219v-10l-101 -31v416l1 17q-12 -49 -40.5 -91.5t-67 -68t-76.5 -25.5q-59 0 -104 34.5t-70 94t-24 131.5q0 71 28 129t75.5 91.5t103.5 33.5t103 -32t68 -80l14 100h20v-693q0 -13 9 -21t20 -5zM396 370.5q-24 55.5 -64.5 87.5t-86.5 32q-51 0 -89 -31t-58.5 -85.5
t-21.5 -124.5q0 -68 22.5 -121t61.5 -82.5t85 -29.5q38 0 79 29.5t68.5 82.5t27.5 119q0 68 -24 123.5z" />
    <glyph glyph-name="r" unicode="r" horiz-adv-x="336" 
d="M299 430q0 -22 -18 -22q-14 0 -24 25q-7 21 -22 35t-34 14q-33 0 -53 -27.5t-28 -62t-8 -54.5v-282q0 -25 9 -33.5t25 -9.5l36 -3v-10h-172v10l36 3q16 1 25 9.5t9 33.5v380q0 24 -19 24q-4 0 -14 -2l-29 -8v10l94 35v-88q12 42 40 68.5t69 26.5q31 0 53.5 -22t24.5 -47
v-3z" />
    <glyph glyph-name="s" unicode="s" horiz-adv-x="413" 
d="M165.5 -3q-25.5 9 -50.5 24q-9 5 -17.5 9t-15.5 4q-14 0 -17.5 -8.5t-3 -16t0.5 -9.5h-10l-22 203h11q29 -202 197 -202q49 0 81.5 28.5t32.5 72.5q0 41 -30 75t-106 66q-63 26 -97 43.5t-53.5 41t-19.5 56.5q0 50 39.5 84t100.5 34q26 0 46.5 -7.5t42.5 -20.5
q20 -11 26 -11q8 0 10.5 8.5t1.5 18.5h11l22 -164h-11q-14 87 -55.5 125.5t-101.5 38.5q-48 0 -76 -26t-28 -63q0 -28 18 -48t44.5 -34.5t73.5 -33.5l19 -8q51 -22 82 -40.5t51.5 -48t20.5 -74.5q0 -43 -23.5 -71.5t-58.5 -41.5t-69 -13q-41 0 -66.5 9z" />
    <glyph glyph-name="t" unicode="t" horiz-adv-x="301" 
d="M130.5 18.5q-22.5 30.5 -22.5 83.5v376h-98v12h33q37 0 52.5 13.5t18.5 39.5l10 76h16v-129h149v-12h-149v-377q0 -49 18.5 -71.5t45.5 -22.5q20 0 41.5 11t37.5 30l8 -3q-20 -25 -44.5 -41t-50.5 -16q-43 0 -65.5 30.5z" />
    <glyph glyph-name="u" unicode="u" 
d="M123.5 35.5q-43.5 47.5 -43.5 140.5v258q0 25 -9 33.5t-25 9.5l-36 3v10h102v-307q0 -88 38.5 -130t97.5 -42q45 0 81 22t56 61t20 89v251q0 25 -9 33.5t-25 9.5l-36 3v10h102v-437q0 -24 20 -24l13 2l37 9v-10l-102 -36v125q-8 -37 -34 -67t-61.5 -47t-72.5 -17
q-70 0 -113.5 47.5z" />
    <glyph glyph-name="v" unicode="v" horiz-adv-x="551" 
d="M75 466q-10 8 -36 11l-29 3v10h185v-10l-39 -3q-17 -1 -25 -5.5t-8 -15.5q0 -6 5 -19l146 -372l159 369q5 11 5 21q0 20 -32 22l-42 3v10h177v-10l-30 -3q-26 -2 -39.5 -11t-24.5 -35l-184 -431l-167 430q-11 28 -21 36z" />
    <glyph glyph-name="w" unicode="w" horiz-adv-x="792" 
d="M72 465.5q-13 9.5 -33 11.5l-29 2v11h171v-11l-34 -2q-23 -2 -23 -22q0 -9 4 -18l159 -384l96 219l-67 157q-11 27 -24 36.5t-33 11.5l-31 2v11h335v-11l-40 -3q-21 -2 -33 -10.5t-24 -35.5l-60 -133l101 -244l169 382q5 10 5 20q0 18 -24 20l-46 4v11h171v-11l-40 -3
q-20 -2 -32 -10.5t-24 -35.5l-190 -430l-108 258l-112 -258l-180 430q-11 26 -24 35.5zM463 459q0 11 -12 15.5t-43 4.5h-13q-32 0 -44.5 -4t-12.5 -13q0 -4 3.5 -12.5t5.5 -12.5l53 -126l56 124q7 18 7 24z" />
    <glyph glyph-name="x" unicode="x" 
d="M431.5 465.5q-16.5 -8.5 -31.5 -30.5l-131 -184l134 -196q15 -22 30 -30.5t38 -10.5l26 -3v-11h-177v11l21 2q31 3 31 21q0 11 -9 23l-114 166l-116 -164q-11 -16 -11 -25q0 -17 31 -20l35 -3v-11h-178v11l37 3q22 2 38.5 10.5t31.5 30.5l126 177l-139 203
q-15 22 -30 30.5t-38 10.5l-26 3v11h177v-11l-21 -2q-31 -3 -31 -21q0 -11 9 -23l119 -173l121 171q11 16 11 25q0 17 -31 20l-35 3v11h178v-11l-37 -3q-22 -2 -38.5 -10.5z" />
    <glyph glyph-name="y" unicode="y" horiz-adv-x="551" 
d="M47 -261q-16 0 -26 7t-10 17t9 16.5t26 6.5q41 0 67 10t49.5 40t50.5 92l41 93l-158 409q-11 28 -21 36t-36 11l-29 3v10h186v-10l-39 -3q-17 -1 -25 -5.5t-8 -15.5q0 -6 5 -19l144 -372l159 369q5 11 5 21q0 20 -32 22l-42 3v10h178v-10l-30 -3q-26 -2 -39.5 -11
t-24.5 -35l-243 -562q-30 -70 -68 -96t-77 -33q-4 -1 -12 -1z" />
    <glyph glyph-name="z" unicode="z" horiz-adv-x="434" 
d="M118 478q-14 0 -23 -9.5t-13 -25.5l-22 -92h-10l17 139h333l-321 -478h258q13 0 22.5 10t12.5 26l23 112h9l-17 -160h-357l323 478h-235z" />
    <glyph glyph-name="braceleft" unicode="{" horiz-adv-x="273" 
d="M139.5 -73q-53.5 33 -53.5 113q0 33 13 72l7 19q15 42 23 69.5t8 52.5q0 38 -24 63.5t-82 37.5v13q58 12 82 37.5t24 62.5q0 23 -6 45.5t-21 66.5q-8 20 -11 30q-13 38 -13 70q0 81 53.5 114t102.5 45v-16q-65 -16 -96.5 -57.5t-31.5 -95.5q0 -34 13 -71q23 -64 23 -114
q0 -65 -33.5 -92t-70.5 -31q38 -5 71 -32t33 -92q0 -48 -23 -114q-12 -34 -12 -71q0 -55 31 -96.5t96 -57.5v-16q-49 12 -102.5 45z" />
    <glyph glyph-name="bar" unicode="|" horiz-adv-x="74" 
d="M31 803h11v-953h-11v953z" />
    <glyph glyph-name="braceright" unicode="}" horiz-adv-x="273" 
d="M127 -44.5q31 41.5 31 96.5q0 37 -12 71q-23 66 -23 114q0 65 33 92t71 32q-37 4 -70.5 31t-33.5 92q0 50 23 114q13 37 13 71q0 54 -31.5 95.5t-96.5 57.5v16q49 -12 102.5 -45t53.5 -114q0 -32 -13 -70q-3 -10 -11 -30q-15 -44 -21 -66.5t-6 -45.5q0 -37 24 -62.5
t82 -37.5v-13q-58 -12 -82 -37.5t-24 -63.5q0 -25 8 -52.5t23 -69.5l7 -19q13 -39 13 -72q0 -80 -53.5 -113t-102.5 -45v16q65 16 96 57.5z" />
    <glyph glyph-name="asciitilde" unicode="~" horiz-adv-x="480" 
d="M305.5 235.5q-21.5 12.5 -56.5 41.5l-17 14l-28 23q-26 24 -43 34t-41 10q-33 0 -51.5 -26.5t-25 -55t-6.5 -37.5h-12q0 11 9.5 45t32.5 63.5t61 29.5q27 0 48.5 -12t52.5 -39l23 -18q9 -7 16 -13t13 -11q26 -22 42.5 -32t38.5 -10q32 0 49.5 26.5t25.5 61t6 32.5h12
q-7 -44 -27.5 -91.5t-73.5 -47.5q-27 0 -48.5 12.5z" />
    <glyph glyph-name="uni00A0" unicode="&#xa0;" horiz-adv-x="607" 
 />
    <glyph glyph-name="exclamdown" unicode="&#xa1;" horiz-adv-x="132" 
d="M41.5 489.5q-10.5 10.5 -10.5 24.5t10.5 24.5t24.5 10.5t24.5 -10.5t10.5 -24.5t-10.5 -24.5t-24.5 -10.5t-24.5 10.5zM49 -160.5q-7 9.5 -6 22.5l17 504h11l18 -504q1 -13 -6.5 -22.5t-16.5 -9.5q-10 0 -17 9.5z" />
    <glyph glyph-name="cent" unicode="&#xa2;" horiz-adv-x="473" 
d="M453 163q-12 -42 -38.5 -82t-67 -66.5t-89.5 -26.5q-44 0 -82 17t-67 48l-51 -84l-10 6l53 87q-29 34 -45 80.5t-16 98.5q0 71 30 131t80.5 95t109.5 35q54 0 96 -25l45 74l9 -6l-45 -73q29 -19 48 -46t26 -59q1 -4 1 -10q0 -13 -6 -21t-15 -8q-10 0 -17.5 10t-7.5 29
q0 15 -4 32.5t-12 29.5q-8 13 -22 27l-228 -372q28 -34 64 -53t74 -19q63 0 107.5 40t69.5 114zM121 94l226 370q-35 28 -87 28q-48 0 -90.5 -34t-68 -91.5t-25.5 -125.5q0 -84 45 -147z" />
    <glyph glyph-name="sterling" unicode="&#xa3;" horiz-adv-x="489" 
d="M458 187q0 -93 -33 -146t-100 -53q-39 0 -69 17t-64 48q-32 -65 -89 -65q-34 0 -52.5 20.5t-18.5 46.5q0 27 19.5 48t53.5 21q35 0 71 -26q12 51 12 117q0 60 -9 120h-101v11h99q-14 84 -14 148q0 101 32 156.5t98 55.5q46 0 75 -31t42 -69.5t13 -59.5q0 -56 -25 -56
q-11 0 -16.5 8.5t-5.5 21.5q0 6 2 16q4 17 4 40q0 49 -23.5 84.5t-67.5 35.5q-49 0 -73.5 -45t-24.5 -130q0 -74 18 -175h237v-11h-235q9 -57 9 -115q0 -85 -20 -142q37 -30 63.5 -44.5t63.5 -14.5q61 0 89.5 45.5t28.5 126.5q0 24 -1 36h11q1 -14 1 -40zM169 74
q-19 17 -35.5 26t-34.5 9q-27 0 -42 -16t-15 -37q0 -22 14.5 -37t39.5 -15q48 0 73 70z" />
    <glyph glyph-name="yen" unicode="&#xa5;" horiz-adv-x="615" 
d="M605 700v-10l-49 -3q-20 -1 -35.5 -10.5t-32.5 -37.5l-164 -270h164v-12h-170v-142h170v-12h-170v-142q0 -27 14 -36.5t38 -11.5l47 -3v-10h-232v10l49 3q23 1 37.5 10.5t14.5 37.5v142h-168v12h168v142h-168v12h163l-162 270q-17 28 -32 37t-36 11l-41 3v10h219v-10
l-40 -3q-23 -2 -34.5 -6.5t-11.5 -14.5q0 -8 11 -27l159 -261l160 261q8 12 8 23q0 13 -12 18t-32 7l-47 3v10h215z" />
    <glyph glyph-name="section" unicode="&#xa7;" horiz-adv-x="318" 
d="M268.5 192q-19.5 -32 -50.5 -53q34 -37 49.5 -70.5t15.5 -76.5q0 -46 -27.5 -83.5t-76.5 -37.5q-41 0 -72 33q-6 7 -11 7q-10 0 -7 -29h-8l-21 297h10q14 -147 38.5 -221.5t77.5 -74.5q41 0 58.5 29t17.5 68q0 35 -22 69.5t-72 78.5q-68 60 -103 112.5t-35 126.5
q0 42 19.5 74t50.5 53q-34 37 -49.5 70.5t-15.5 76.5q0 46 27.5 83.5t76.5 37.5q41 0 72 -33q6 -7 11 -7q10 0 7 29h8l21 -297h-10q-14 147 -38.5 221.5t-77.5 74.5q-41 0 -58.5 -29t-17.5 -68q0 -35 22 -69.5t72 -78.5q68 -60 103 -112.5t35 -126.5q0 -42 -19.5 -74z
M208 149l1 -1q56 36 56 96q0 44 -29 92.5t-83 103.5l-43 44l-1 1q-56 -36 -56 -96q0 -44 29 -92.5t83 -103.5z" />
    <glyph glyph-name="copyright" unicode="&#xa9;" horiz-adv-x="760" 
d="M206.5 26q-80.5 46 -128.5 124.5t-48 171.5t46.5 172t126.5 126t175 47t176 -45.5t128.5 -124.5t47.5 -172t-46.5 -172t-126.5 -126t-175 -47t-175.5 46zM533 35.5q73 46.5 118 124t45 165.5t-46.5 165.5t-120 123t-151.5 45.5t-151 -47t-118 -124.5t-45 -165.5
t46.5 -164.5t120 -122.5t151.5 -46t151 46.5zM267 120.5q-51 32.5 -81 87t-30 116.5q0 63 30.5 116.5t82 85.5t111.5 32q62 0 114.5 -29t81.5 -78l-57 -84h-12l20 43q6 14 6 27q0 24 -17 44q-27 29 -62 44t-72 15q-15 0 -22 -1q-79 -10 -127.5 -66t-48.5 -137
q0 -59 28.5 -111.5t75 -84t98.5 -31.5q12 0 18 1q65 7 111 51t66 117h11q-25 -89 -79 -138.5t-136 -50.5q-59 -1 -110 31.5z" />
    <glyph glyph-name="guillemotleft" unicode="&#xab;" horiz-adv-x="525" 
d="M194.5 274q-51.5 45 -96.5 60t-67 17v8q56 9 130 49.5t110 151.5l14 -8q-23 -66 -69 -110.5t-94.5 -65.5t-79.5 -21q32 0 80.5 -21t94 -65t68.5 -110l-14 -9q-25 79 -76.5 124zM403.5 274q-51.5 45 -96.5 60t-67 17v8q56 9 130 49.5t110 151.5l14 -8q-23 -66 -69 -110.5
t-95 -65.5t-79 -21q32 0 80.5 -21t94 -65t68.5 -110l-14 -9q-25 79 -76.5 124z" />
    <glyph glyph-name="uni00AD" unicode="&#xad;" horiz-adv-x="280" 
 />
    <glyph glyph-name="registered" unicode="&#xae;" horiz-adv-x="763" 
d="M207.5 25q-80.5 46 -128.5 124.5t-48 171.5t46.5 172t126.5 126t175 47t176 -45.5t128.5 -124.5t47.5 -172t-46.5 -172t-126.5 -126t-175 -47t-175.5 46zM534 34.5q73 46.5 118 124t45 165.5t-46.5 165.5t-120 123t-151.5 45.5t-151 -47t-118 -124.5t-45 -165.5
t46.5 -164.5t120 -122.5t151.5 -46t151 46.5zM497 121.5q-11 13.5 -18 41.5l-26 104q-10 40 -31 64t-65 24h-47v-202q0 -10 6.5 -17t17.5 -9l26 -3v-10h-128v10l26 3q11 2 17.5 9t6.5 17v373q0 10 -7 17.5t-17 8.5l-24 2v10h160q40 0 68 -15.5t42 -39t14 -47.5
q0 -37 -27.5 -67.5t-78.5 -37.5q53 -24 69 -88l27 -102q5 -16 10.5 -26.5t15.5 -10.5q15 0 23 20.5t9 50.5h10q-2 -39 -14 -66t-34 -27q-20 0 -31 13.5zM460 392.5q28 25.5 28 69.5q0 41 -28.5 65.5t-77.5 24.5h-72v-185h76q46 0 74 25.5z" />
    <glyph glyph-name="degree" unicode="&#xb0;" horiz-adv-x="219" 
d="M53.5 523.5q-23.5 23.5 -23.5 56.5t23.5 56t56.5 23t56 -23t23 -56t-23 -56.5t-56 -23.5t-56.5 23.5zM155 534q19 19 19 46q0 26 -19 45t-45 19q-27 0 -46 -19t-19 -45q0 -27 19 -46t46 -19q26 0 45 19z" />
    <glyph glyph-name="uni00B5" unicode="&#xb5;" horiz-adv-x="528" 
d="M62 490v-334q0 -71 39 -108t96 -37q41 0 74 20t52 57.5t19 86.5v315h32v-402q0 -78 41 -78q37 0 50 49h6q-6 -32 -24 -51.5t-46 -19.5q-27 0 -43.5 27t-15.5 73v31q-13 -57 -53 -94t-98 -37q-42 0 -75 15.5t-54 44.5v-180h-32v622h32z" />
    <glyph glyph-name="paragraph" unicode="&#xb6;" horiz-adv-x="449" 
d="M129.5 298.5q-45.5 26.5 -72.5 72.5t-27 100t27 100t72.5 73t100.5 27h189v-18h-58v-896h-31v896h-69v-896h-31v515q-55 0 -100.5 26.5z" />
    <glyph glyph-name="guillemotright" unicode="&#xbb;" horiz-adv-x="525" 
d="M99.5 269q45.5 44 94 65t80.5 21q-30 0 -79 21t-95 65.5t-69 110.5l14 8q36 -111 110 -151.5t130 -49.5v-8q-22 -2 -67 -17t-96.5 -60t-76.5 -124l-14 9q23 66 68.5 110zM308.5 269q45.5 44 94 65t80.5 21q-31 0 -79.5 21t-95 65.5t-68.5 110.5l14 8q36 -111 110 -151.5
t130 -49.5v-8q-22 -2 -67 -17t-96.5 -60t-76.5 -124l-14 9q23 66 68.5 110z" />
    <glyph glyph-name="questiondown" unicode="&#xbf;" horiz-adv-x="322" 
d="M145.5 470q-10.5 10 -10.5 24q0 15 10.5 25t24.5 10t24.5 -10t10.5 -25q0 -14 -10.5 -24t-24.5 -10t-24.5 10zM98.5 -170.5q-30.5 18.5 -48.5 53.5t-18 82q0 43 17 83t50 97q36 62 54 106.5t16 94.5h9q1 -7 1 -22q0 -51 -15.5 -96.5t-45.5 -104.5q-26 -55 -38.5 -88.5
t-12.5 -69.5q0 -73 27.5 -108.5t72.5 -35.5q37 0 61.5 31t24.5 78q0 35 -14 70q-3 8 -3 14q0 10 5.5 16.5t14.5 6.5q8 0 15 -5.5t11 -15.5q10 -26 10 -56q0 -39 -17.5 -73.5t-47 -55t-62.5 -20.5q-36 0 -66.5 18.5z" />
    <glyph glyph-name="Agrave" unicode="&#xc0;" horiz-adv-x="664" 
d="M337 756h-21l-100 116h48zM654 10v-10h-221v10l44 3q19 2 29.5 7.5t10.5 20.5q0 4 -4 20l-72 226l-230 1l-72 -227q-4 -16 -4 -20q0 -15 11 -21t29 -7l50 -3v-10h-214v10l46 3q24 2 41.5 11.5t26.5 36.5l204 639h14l204 -639q9 -27 26.5 -36.5t41.5 -11.5zM214 298h224
l-112 352z" />
    <glyph glyph-name="Aacute" unicode="&#xc1;" horiz-adv-x="664" 
d="M440 872l-100 -116h-21l73 116h48zM654 10v-10h-221v10l44 3q19 2 29.5 7.5t10.5 20.5q0 4 -4 20l-72 226l-230 1l-72 -227q-4 -16 -4 -20q0 -15 11 -21t29 -7l50 -3v-10h-214v10l46 3q24 2 41.5 11.5t26.5 36.5l204 639h14l204 -639q9 -27 26.5 -36.5t41.5 -11.5z
M214 298h224l-112 352z" />
    <glyph glyph-name="Acircumflex" unicode="&#xc2;" horiz-adv-x="664" 
d="M333 820l-77 -64h-21l98 116l98 -116h-21zM654 10v-10h-221v10l44 3q19 2 29.5 7.5t10.5 20.5q0 4 -4 20l-72 226l-230 1l-72 -227q-4 -16 -4 -20q0 -15 11 -21t29 -7l50 -3v-10h-214v10l46 3q24 2 41.5 11.5t26.5 36.5l204 639h14l204 -639q9 -27 26.5 -36.5t41.5 -11.5
zM214 298h224l-112 352z" />
    <glyph glyph-name="Atilde" unicode="&#xc3;" horiz-adv-x="664" 
d="M245.5 812q-10.5 -15 -16.5 -36l-21 6q11 32 43 47q18 8 35 8q28 0 56 -25q20 -20 34 -29.5t24 -9.5q3 0 9 2q14 6 22.5 25.5t8.5 24.5l21 -7q0 -1 -5.5 -17.5t-35.5 -29.5q-17 -7 -34 -7q-33 0 -59 25q-20 19 -33.5 28.5t-23.5 9.5q-14 0 -24.5 -15zM654 10v-10h-221v10
l44 3q19 2 29.5 7.5t10.5 20.5q0 4 -4 20l-72 226l-230 1l-72 -227q-4 -16 -4 -20q0 -15 11 -21t29 -7l50 -3v-10h-214v10l46 3q24 2 41.5 11.5t26.5 36.5l204 639h14l204 -639q9 -27 26.5 -36.5t41.5 -11.5zM214 298h224l-112 352z" />
    <glyph glyph-name="Adieresis" unicode="&#xc4;" horiz-adv-x="664" 
d="M259.5 778.5q-8.5 8.5 -8.5 19.5q0 12 8.5 20.5t19.5 8.5q12 0 20.5 -8.5t8.5 -20.5q0 -11 -8.5 -19.5t-20.5 -8.5q-11 0 -19.5 8.5zM368.5 778.5q-8.5 8.5 -8.5 19.5q0 12 8.5 20.5t19.5 8.5q12 0 20.5 -8.5t8.5 -20.5q0 -11 -8.5 -19.5t-20.5 -8.5q-11 0 -19.5 8.5z
M654 10v-10h-221v10l44 3q19 2 29.5 7.5t10.5 20.5q0 4 -4 20l-72 226l-230 1l-72 -227q-4 -16 -4 -20q0 -15 11 -21t29 -7l50 -3v-10h-214v10l46 3q24 2 41.5 11.5t26.5 36.5l204 639h14l204 -639q9 -27 26.5 -36.5t41.5 -11.5zM214 298h224l-112 352z" />
    <glyph glyph-name="Aring" unicode="&#xc5;" horiz-adv-x="664" 
d="M300 765.5q-15 14.5 -15 35.5t14.5 35.5t35.5 14.5t35.5 -14.5t14.5 -35.5t-14.5 -35.5t-35.5 -14.5q-20 0 -35 14.5zM310.5 825.5q-10.5 -10.5 -10.5 -24.5t10.5 -24.5t24.5 -10.5t24.5 10.5t10.5 24.5t-10.5 24.5t-24.5 10.5t-24.5 -10.5zM654 10v-10h-221v10l44 3
q19 2 29.5 7.5t10.5 20.5q0 4 -4 20l-72 226l-230 1l-72 -227q-4 -16 -4 -20q0 -15 11 -21t29 -7l50 -3v-10h-214v10l46 3q24 2 41.5 11.5t26.5 36.5l204 639h14l204 -639q9 -27 26.5 -36.5t41.5 -11.5zM214 298h224l-112 352z" />
    <glyph glyph-name="AE" unicode="&#xc6;" horiz-adv-x="825" 
d="M815 155l-25 -155h-451v10l48 3q24 2 38 11.5t14 36.5v226l-184 1l-108 -227q-7 -15 -7 -25q0 -13 9.5 -17.5t25.5 -5.5l50 -3l-1 -10h-214l1 10l46 3q25 2 44 11.5t32 36.5l304 639h326l23 -133h-10q-12 53 -24.5 78t-33 34t-58.5 9h-189v-297h187q19 0 33 12.5t15 31.5
l4 46h10v-191h-10l-4 46q-1 19 -15 31t-33 12h-187v-318q0 -48 52 -48h154q41 0 63 9.5t37 39t28 93.5h10zM259 298h180l-1 377z" />
    <glyph glyph-name="Ccedilla" unicode="&#xc7;" horiz-adv-x="734" 
d="M647.5 127.5q-45.5 -64.5 -115.5 -102t-151 -37.5l-37 -40q33 13 61 13q33 0 50.5 -16.5t14.5 -40.5q-5 -32 -39 -50.5t-83 -18.5q-19 0 -40 3l3 13q7 -1 23 -1q42 0 73.5 14t31.5 45q0 19 -14.5 29t-36.5 10q-33 0 -60 -17l-11 16l40 42q-89 6 -164 55t-119 129t-44 174
q0 98 47.5 182t127.5 133t174 49t171.5 -40.5t131.5 -122.5l-84 -129l-8 5l28 59q10 20 10 42q0 42 -30 75q-43 47 -98 73.5t-115 26.5q-10 0 -32 -2q-83 -9 -147.5 -55t-100.5 -118t-36 -157q0 -28 2 -43q10 -87 56 -158.5t115.5 -112.5t145.5 -41q71 0 136 32.5t110.5 91
t59.5 133.5h10q-11 -78 -56.5 -142.5z" />
    <glyph glyph-name="Egrave" unicode="&#xc8;" horiz-adv-x="496" 
d="M158 872h49l73 -116h-22zM96 24.5q14 9.5 14 36.5v578q0 27 -14 36.5t-38 11.5l-48 3v10h424l23 -133h-10q-12 53 -24.5 78t-33 34t-58.5 9h-189v-297h187q19 0 33 12.5t15 31.5l4 46h10v-191h-10l-4 46q-1 19 -15 31t-33 12h-187v-318q0 -48 52 -48h154q41 0 63 9.5
t37 39t28 93.5h10l-25 -155h-451v10l48 3q24 2 38 11.5z" />
    <glyph glyph-name="Eacute" unicode="&#xc9;" horiz-adv-x="496" 
d="M315 872h48l-100 -116h-22zM96 24.5q14 9.5 14 36.5v578q0 27 -14 36.5t-38 11.5l-48 3v10h424l23 -133h-10q-12 53 -24.5 78t-33 34t-58.5 9h-189v-297h187q19 0 33 12.5t15 31.5l4 46h10v-191h-10l-4 46q-1 19 -15 31t-33 12h-187v-318q0 -48 52 -48h154q41 0 63 9.5
t37 39t28 93.5h10l-25 -155h-451v10l48 3q24 2 38 11.5z" />
    <glyph glyph-name="Ecircumflex" unicode="&#xca;" horiz-adv-x="496" 
d="M262 872l98 -116h-21l-77 64l-77 -64h-21zM96 24.5q14 9.5 14 36.5v578q0 27 -14 36.5t-38 11.5l-48 3v10h424l23 -133h-10q-12 53 -24.5 78t-33 34t-58.5 9h-189v-297h187q19 0 33 12.5t15 31.5l4 46h10v-191h-10l-4 46q-1 19 -15 31t-33 12h-187v-318q0 -48 52 -48h154
q41 0 63 9.5t37 39t28 93.5h10l-25 -155h-451v10l48 3q24 2 38 11.5z" />
    <glyph glyph-name="Edieresis" unicode="&#xcb;" horiz-adv-x="496" 
d="M186.5 778.5q-8.5 8.5 -8.5 19.5q0 12 8.5 20.5t19.5 8.5q12 0 20.5 -8.5t8.5 -20.5q0 -11 -8.5 -19.5t-20.5 -8.5q-11 0 -19.5 8.5zM295.5 778.5q-8.5 8.5 -8.5 19.5q0 12 8.5 20.5t19.5 8.5q12 0 20.5 -8.5t8.5 -20.5q0 -11 -8.5 -19.5t-20.5 -8.5q-11 0 -19.5 8.5z
M96 24.5q14 9.5 14 36.5v578q0 27 -14 36.5t-38 11.5l-48 3v10h424l23 -133h-10q-12 53 -24.5 78t-33 34t-58.5 9h-189v-297h187q19 0 33 12.5t15 31.5l4 46h10v-191h-10l-4 46q-1 19 -15 31t-33 12h-187v-318q0 -48 52 -48h154q41 0 63 9.5t37 39t28 93.5h10l-25 -155h-451
v10l48 3q24 2 38 11.5z" />
    <glyph glyph-name="Igrave" unicode="&#xcc;" horiz-adv-x="252" 
d="M16 873h48l74 -116h-22zM96 24.5q14 9.5 14 36.5v578q0 27 -14 36.5t-38 11.5l-48 3v10h232v-10l-48 -3q-24 -2 -38 -11.5t-14 -36.5v-578q0 -27 14 -36.5t38 -11.5l48 -3v-10h-232v10l48 3q24 2 38 11.5z" />
    <glyph glyph-name="Iacute" unicode="&#xcd;" horiz-adv-x="252" 
d="M183 873h48l-100 -116h-21zM96 24.5q14 9.5 14 36.5v578q0 27 -14 36.5t-38 11.5l-48 3v10h232v-10l-48 -3q-24 -2 -38 -11.5t-14 -36.5v-578q0 -27 14 -36.5t38 -11.5l48 -3v-10h-232v10l48 3q24 2 38 11.5z" />
    <glyph glyph-name="Icircumflex" unicode="&#xce;" horiz-adv-x="252" 
d="M124 873l99 -116h-22l-77 65l-76 -65h-22zM96 24.5q14 9.5 14 36.5v578q0 27 -14 36.5t-38 11.5l-48 3v10h232v-10l-48 -3q-24 -2 -38 -11.5t-14 -36.5v-578q0 -27 14 -36.5t38 -11.5l48 -3v-10h-232v10l48 3q24 2 38 11.5z" />
    <glyph glyph-name="Idieresis" unicode="&#xcf;" horiz-adv-x="252" 
d="M51.5 778.5q-8.5 8.5 -8.5 19.5q0 12 8.5 20.5t19.5 8.5q12 0 20.5 -8.5t8.5 -20.5q0 -11 -8.5 -19.5t-20.5 -8.5q-11 0 -19.5 8.5zM160.5 778.5q-8.5 8.5 -8.5 19.5q0 12 8.5 20.5t19.5 8.5q12 0 20.5 -8.5t8.5 -20.5q0 -11 -8.5 -19.5t-20.5 -8.5q-11 0 -19.5 8.5z
M96 24.5q14 9.5 14 36.5v578q0 27 -14 36.5t-38 11.5l-48 3v10h232v-10l-48 -3q-24 -2 -38 -11.5t-14 -36.5v-578q0 -27 14 -36.5t38 -11.5l48 -3v-10h-232v10l48 3q24 2 38 11.5z" />
    <glyph glyph-name="Ntilde" unicode="&#xd1;" horiz-adv-x="614" 
d="M357 764q-33 0 -59 25q-20 19 -33.5 28.5t-23.5 9.5q-14 0 -24.5 -15t-16.5 -36l-21 6q11 32 43 47q18 8 35 8q28 0 56 -25q20 -20 34 -29.5t24 -9.5q3 0 9 2q14 6 22.5 25.5t8.5 24.5l21 -7q0 -1 -5.5 -17.5t-35.5 -29.5q-18 -7 -34 -7zM96 24.5q14 9.5 14 36.5v578
q0 27 -14 36.5t-38 11.5l-48 3v10h112l368 -623v562q0 27 -14 36.5t-38 11.5l-48 3v10h214v-10l-48 -3q-24 -2 -38 -11.5t-14 -36.5v-639h-10l-370 629v-568q0 -27 14 -36.5t38 -11.5l48 -3v-10h-214v10l48 3q24 2 38 11.5z" />
    <glyph glyph-name="Ograve" unicode="&#xd2;" horiz-adv-x="780" 
d="M289 869h49l73 -116h-22zM392 -12q-102 0 -191.5 54.5t-135.5 150.5q-35 73 -35 155q0 103 54 192t149 135q73 35 154 35q103 0 191.5 -54.5t135.5 -150.5q36 -73 36 -157q0 -102 -54 -190.5t-149 -134.5q-73 -35 -155 -35zM671 155q49 86 49 185q0 80 -34 151
q-31 62 -83.5 107.5t-116 69.5t-127.5 24q-69 0 -122 -26q-78 -37 -127 -123.5t-49 -186.5q0 -80 33 -149q30 -63 82.5 -108.5t116.5 -69.5t128 -24q67 0 123 27q78 37 127 123z" />
    <glyph glyph-name="Oacute" unicode="&#xd3;" horiz-adv-x="780" 
d="M423 869h48l-100 -116h-21zM392 -12q-102 0 -191.5 54.5t-135.5 150.5q-35 73 -35 155q0 103 54 192t149 135q73 35 154 35q103 0 191.5 -54.5t135.5 -150.5q36 -73 36 -157q0 -102 -54 -190.5t-149 -134.5q-73 -35 -155 -35zM671 155q49 86 49 185q0 80 -34 151
q-31 62 -83.5 107.5t-116 69.5t-127.5 24q-69 0 -122 -26q-78 -37 -127 -123.5t-49 -186.5q0 -80 33 -149q30 -63 82.5 -108.5t116.5 -69.5t128 -24q67 0 123 27q78 37 127 123z" />
    <glyph glyph-name="Ocircumflex" unicode="&#xd4;" horiz-adv-x="780" 
d="M390 869l98 -116h-22l-76 64l-77 -64h-21zM392 -12q-102 0 -191.5 54.5t-135.5 150.5q-35 73 -35 155q0 103 54 192t149 135q73 35 154 35q103 0 191.5 -54.5t135.5 -150.5q36 -73 36 -157q0 -102 -54 -190.5t-149 -134.5q-73 -35 -155 -35zM671 155q49 86 49 185
q0 80 -34 151q-31 62 -83.5 107.5t-116 69.5t-127.5 24q-69 0 -122 -26q-78 -37 -127 -123.5t-49 -186.5q0 -80 33 -149q30 -63 82.5 -108.5t116.5 -69.5t128 -24q67 0 123 27q78 37 127 123z" />
    <glyph glyph-name="Otilde" unicode="&#xd5;" horiz-adv-x="780" 
d="M442 764q-33 0 -59 25q-20 19 -33.5 28.5t-23.5 9.5q-14 0 -24.5 -15t-16.5 -36l-21 6q11 32 43 47q18 8 35 8q28 0 56 -25q20 -20 34 -29.5t24 -9.5q3 0 9 2q14 6 22.5 25.5t8.5 24.5l21 -7q0 -1 -5.5 -17.5t-35.5 -29.5q-18 -7 -34 -7zM392 -12q-102 0 -191.5 54.5
t-135.5 150.5q-35 73 -35 155q0 103 54 192t149 135q73 35 154 35q103 0 191.5 -54.5t135.5 -150.5q36 -73 36 -157q0 -102 -54 -190.5t-149 -134.5q-73 -35 -155 -35zM671 155q49 86 49 185q0 80 -34 151q-31 62 -83.5 107.5t-116 69.5t-127.5 24q-69 0 -122 -26
q-78 -37 -127 -123.5t-49 -186.5q0 -80 33 -149q30 -63 82.5 -108.5t116.5 -69.5t128 -24q67 0 123 27q78 37 127 123z" />
    <glyph glyph-name="Odieresis" unicode="&#xd6;" horiz-adv-x="780" 
d="M315.5 778.5q-8.5 8.5 -8.5 19.5q0 12 8.5 20.5t19.5 8.5q12 0 20.5 -8.5t8.5 -20.5q0 -11 -8.5 -19.5t-20.5 -8.5q-11 0 -19.5 8.5zM424.5 778.5q-8.5 8.5 -8.5 19.5q0 12 8.5 20.5t19.5 8.5q12 0 20.5 -8.5t8.5 -20.5q0 -11 -8.5 -19.5t-20.5 -8.5q-11 0 -19.5 8.5z
M392 -12q-102 0 -191.5 54.5t-135.5 150.5q-35 73 -35 155q0 103 54 192t149 135q73 35 154 35q103 0 191.5 -54.5t135.5 -150.5q36 -73 36 -157q0 -102 -54 -190.5t-149 -134.5q-73 -35 -155 -35zM671 155q49 86 49 185q0 80 -34 151q-31 62 -83.5 107.5t-116 69.5
t-127.5 24q-69 0 -122 -26q-78 -37 -127 -123.5t-49 -186.5q0 -80 33 -149q30 -63 82.5 -108.5t116.5 -69.5t128 -24q67 0 123 27q78 37 127 123z" />
    <glyph glyph-name="Oslash" unicode="&#xd8;" horiz-adv-x="780" 
d="M750 348q0 -102 -54 -190.5t-149 -134.5q-75 -36 -155 -36q-66 0 -128.5 24t-112.5 68l-68 -85l-8 7l68 85q-49 47 -78 107q-35 73 -35 155q0 103 54 192t149 135q73 35 154 35q114 0 207 -64l78 97l8 -6l-78 -97q72 -53 112 -135q36 -73 36 -157zM163 111l411 510
q-48 34 -104 52.5t-112 18.5q-64 0 -121 -26q-78 -37 -127 -123.5t-49 -186.5q0 -80 33 -149q26 -53 69 -96zM671 155q49 86 49 185q0 80 -34 151q-37 74 -104 124l-411 -511q52 -47 118 -73t132 -26q67 0 123 27q78 37 127 123z" />
    <glyph glyph-name="Ugrave" unicode="&#xd9;" horiz-adv-x="630" 
d="M214 866h49l73 -116h-22zM216.5 17q-48.5 29 -76.5 81t-28 119v422q0 27 -14.5 36.5t-38.5 11.5l-48 3l-1 10h232l1 -10l-48 -3q-24 -2 -37.5 -11.5t-13.5 -36.5v-422q0 -63 25 -110t67 -71.5t91 -24.5t90 24.5t65.5 71.5t24.5 110v422q0 27 -14.5 36.5t-38.5 11.5l-48 3
l-1 10h214l1 -10l-48 -3q-24 -2 -37.5 -11.5t-13.5 -36.5v-422q0 -65 -25.5 -117.5t-70.5 -82t-101 -29.5q-59 0 -107.5 29z" />
    <glyph glyph-name="Uacute" unicode="&#xda;" horiz-adv-x="630" 
d="M379 866h48l-100 -116h-22zM216.5 17q-48.5 29 -76.5 81t-28 119v422q0 27 -14.5 36.5t-38.5 11.5l-48 3l-1 10h232l1 -10l-48 -3q-24 -2 -37.5 -11.5t-13.5 -36.5v-422q0 -63 25 -110t67 -71.5t91 -24.5t90 24.5t65.5 71.5t24.5 110v422q0 27 -14.5 36.5t-38.5 11.5
l-48 3l-1 10h214l1 -10l-48 -3q-24 -2 -37.5 -11.5t-13.5 -36.5v-422q0 -65 -25.5 -117.5t-70.5 -82t-101 -29.5q-59 0 -107.5 29z" />
    <glyph glyph-name="Ucircumflex" unicode="&#xdb;" horiz-adv-x="630" 
d="M323 866l98 -116h-22l-76 65l-77 -65h-22zM216.5 17q-48.5 29 -76.5 81t-28 119v422q0 27 -14.5 36.5t-38.5 11.5l-48 3l-1 10h232l1 -10l-48 -3q-24 -2 -37.5 -11.5t-13.5 -36.5v-422q0 -63 25 -110t67 -71.5t91 -24.5t90 24.5t65.5 71.5t24.5 110v422q0 27 -14.5 36.5
t-38.5 11.5l-48 3l-1 10h214l1 -10l-48 -3q-24 -2 -37.5 -11.5t-13.5 -36.5v-422q0 -65 -25.5 -117.5t-70.5 -82t-101 -29.5q-59 0 -107.5 29z" />
    <glyph glyph-name="Udieresis" unicode="&#xdc;" horiz-adv-x="630" 
d="M251.5 778.5q-8.5 8.5 -8.5 19.5q0 12 8.5 20.5t19.5 8.5q12 0 20.5 -8.5t8.5 -20.5q0 -11 -8.5 -19.5t-20.5 -8.5q-11 0 -19.5 8.5zM360.5 778.5q-8.5 8.5 -8.5 19.5q0 12 8.5 20.5t19.5 8.5q12 0 20.5 -8.5t8.5 -20.5q0 -11 -8.5 -19.5t-20.5 -8.5q-11 0 -19.5 8.5z
M216.5 17q-48.5 29 -76.5 81t-28 119v422q0 27 -14.5 36.5t-38.5 11.5l-48 3l-1 10h232l1 -10l-48 -3q-24 -2 -37.5 -11.5t-13.5 -36.5v-422q0 -63 25 -110t67 -71.5t91 -24.5t90 24.5t65.5 71.5t24.5 110v422q0 27 -14.5 36.5t-38.5 11.5l-48 3l-1 10h214l1 -10l-48 -3
q-24 -2 -37.5 -11.5t-13.5 -36.5v-422q0 -65 -25.5 -117.5t-70.5 -82t-101 -29.5q-59 0 -107.5 29z" />
    <glyph glyph-name="Yacute" unicode="&#xdd;" horiz-adv-x="615" 
d="M366 873h48l-100 -116h-22zM229 690l-40 -3q-23 -2 -34.5 -6.5t-11.5 -14.5q0 -8 11 -27l159 -261l160 261q8 12 8 23q0 13 -12 18t-32 7l-47 3v10h215v-10l-49 -3q-20 -1 -35.5 -10.5t-32.5 -37.5l-170 -280v-298q0 -27 14 -36.5t38 -11.5l47 -3v-10h-232v10l49 3
q23 1 37.5 10.5t14.5 37.5v299l-167 279q-17 28 -32 37t-36 11l-41 3v10h219v-10z" />
    <glyph glyph-name="germandbls" unicode="&#xdf;" horiz-adv-x="511" 
d="M246 8.5q-37 20.5 -51 58.5q-4 11 -4 20q0 11 6 17t13 6q15 0 25 -30q12 -41 36 -61.5t65 -20.5q48 0 80.5 34t32.5 88q0 55 -29.5 97.5t-92.5 93.5l-20 16q-40 32 -57.5 52.5t-17.5 50.5q0 27 13.5 48t49.5 44q37 24 51 49.5t14 55.5q0 37 -30 64.5t-74 27.5
q-63 0 -99 -41.5t-36 -126.5v-551h-111v10l36 3q16 1 24 4t13.5 13t5.5 31v489q0 89 43 137t118 48q36 0 64 -15t44 -40t16 -53q0 -72 -60 -120q-28 -23 -38.5 -39.5t-10.5 -31.5q0 -21 14 -37.5t51 -47.5q15 -11 26 -21q73 -62 99 -104t26 -91q0 -38 -20.5 -72t-55.5 -54.5
t-78 -20.5q-44 0 -81 20.5z" />
    <glyph glyph-name="agrave" unicode="&#xe0;" horiz-adv-x="524" 
d="M119 666h49l73 -116h-22zM73 18q-33 30 -33 77q0 49 39 90t113 69.5t178 40.5v49q0 68 -37.5 108t-104.5 39q-58 -1 -93.5 -35t-35.5 -91q0 -13 2.5 -25.5t2.5 -17.5q0 -11 -5.5 -19t-15.5 -8q-12 0 -18 11t-5 31q4 61 34.5 98t70.5 52t74 15q82 0 122.5 -44.5
t40.5 -120.5l-2 -260q0 -36 8 -51t24 -15t32 15.5t24 45.5l9 -4q-8 -35 -29 -56.5t-47 -21.5q-24 0 -38.5 17.5t-14.5 54.5q0 70 1 106q-20 -85 -76.5 -132.5t-127.5 -47.5q-59 0 -92 30zM274.5 43q41.5 28 66.5 77t28 112q1 19 1 54q-157 -24 -226 -73.5t-69 -110.5
q0 -38 28 -62.5t78 -24.5q52 0 93.5 28z" />
    <glyph glyph-name="aacute" unicode="&#xe1;" horiz-adv-x="524" 
d="M277 666h49l-100 -116h-22zM73 18q-33 30 -33 77q0 49 39 90t113 69.5t178 40.5v49q0 68 -37.5 108t-104.5 39q-58 -1 -93.5 -35t-35.5 -91q0 -13 2.5 -25.5t2.5 -17.5q0 -11 -5.5 -19t-15.5 -8q-12 0 -18 11t-5 31q4 61 34.5 98t70.5 52t74 15q82 0 122.5 -44.5
t40.5 -120.5l-2 -260q0 -36 8 -51t24 -15t32 15.5t24 45.5l9 -4q-8 -35 -29 -56.5t-47 -21.5q-24 0 -38.5 17.5t-14.5 54.5q0 70 1 106q-20 -85 -76.5 -132.5t-127.5 -47.5q-59 0 -92 30zM274.5 43q41.5 28 66.5 77t28 112q1 19 1 54q-157 -24 -226 -73.5t-69 -110.5
q0 -38 28 -62.5t78 -24.5q52 0 93.5 28z" />
    <glyph glyph-name="acircumflex" unicode="&#xe2;" horiz-adv-x="524" 
d="M244 666l98 -116h-21l-77 65l-77 -65h-21zM73 18q-33 30 -33 77q0 49 39 90t113 69.5t178 40.5v49q0 68 -37.5 108t-104.5 39q-58 -1 -93.5 -35t-35.5 -91q0 -13 2.5 -25.5t2.5 -17.5q0 -11 -5.5 -19t-15.5 -8q-12 0 -18 11t-5 31q4 61 34.5 98t70.5 52t74 15
q82 0 122.5 -44.5t40.5 -120.5l-2 -260q0 -36 8 -51t24 -15t32 15.5t24 45.5l9 -4q-8 -35 -29 -56.5t-47 -21.5q-24 0 -38.5 17.5t-14.5 54.5q0 70 1 106q-20 -85 -76.5 -132.5t-127.5 -47.5q-59 0 -92 30zM274.5 43q41.5 28 66.5 77t28 112q1 19 1 54q-157 -24 -226 -73.5
t-69 -110.5q0 -38 28 -62.5t78 -24.5q52 0 93.5 28z" />
    <glyph glyph-name="atilde" unicode="&#xe3;" horiz-adv-x="524" 
d="M288 570q-33 0 -59 25q-20 19 -33.5 28.5t-23.5 9.5q-14 0 -24.5 -15t-16.5 -36l-21 6q11 32 43 47q18 8 35 8q28 0 56 -25q20 -20 34 -29.5t24 -9.5q3 0 9 2q14 6 22.5 25.5t8.5 24.5l21 -7q0 -1 -5.5 -17.5t-35.5 -29.5q-17 -7 -34 -7zM73 18q-33 30 -33 77q0 49 39 90
t113 69.5t178 40.5v49q0 68 -37.5 108t-104.5 39q-58 -1 -93.5 -35t-35.5 -91q0 -13 2.5 -25.5t2.5 -17.5q0 -11 -5.5 -19t-15.5 -8q-12 0 -18 11t-5 31q4 61 34.5 98t70.5 52t74 15q82 0 122.5 -44.5t40.5 -120.5l-2 -260q0 -36 8 -51t24 -15t32 15.5t24 45.5l9 -4
q-8 -35 -29 -56.5t-47 -21.5q-24 0 -38.5 17.5t-14.5 54.5q0 70 1 106q-20 -85 -76.5 -132.5t-127.5 -47.5q-59 0 -92 30zM274.5 43q41.5 28 66.5 77t28 112q1 19 1 54q-157 -24 -226 -73.5t-69 -110.5q0 -38 28 -62.5t78 -24.5q52 0 93.5 28z" />
    <glyph glyph-name="adieresis" unicode="&#xe4;" horiz-adv-x="524" 
d="M160.5 590.5q-8.5 8.5 -8.5 19.5q0 12 8.5 20.5t19.5 8.5q12 0 20.5 -8.5t8.5 -20.5q0 -11 -8.5 -19.5t-20.5 -8.5q-11 0 -19.5 8.5zM269.5 590.5q-8.5 8.5 -8.5 19.5q0 12 8.5 20.5t19.5 8.5q12 0 20.5 -8.5t8.5 -20.5q0 -11 -8.5 -19.5t-20.5 -8.5q-11 0 -19.5 8.5z
M73 18q-33 30 -33 77q0 49 39 90t113 69.5t178 40.5v49q0 68 -37.5 108t-104.5 39q-58 -1 -93.5 -35t-35.5 -91q0 -13 2.5 -25.5t2.5 -17.5q0 -11 -5.5 -19t-15.5 -8q-12 0 -18 11t-5 31q4 61 34.5 98t70.5 52t74 15q82 0 122.5 -44.5t40.5 -120.5l-2 -260q0 -36 8 -51
t24 -15t32 15.5t24 45.5l9 -4q-8 -35 -29 -56.5t-47 -21.5q-24 0 -38.5 17.5t-14.5 54.5q0 70 1 106q-20 -85 -76.5 -132.5t-127.5 -47.5q-59 0 -92 30zM274.5 43q41.5 28 66.5 77t28 112q1 19 1 54q-157 -24 -226 -73.5t-69 -110.5q0 -38 28 -62.5t78 -24.5q52 0 93.5 28z
" />
    <glyph glyph-name="aring" unicode="&#xe5;" horiz-adv-x="524" 
d="M200.5 570.5q-14.5 14.5 -14.5 35.5t14.5 35.5t35.5 14.5q20 0 35 -14.5t15 -35.5t-15 -35.5t-35 -14.5q-21 0 -35.5 14.5zM260.5 581.5q10.5 10.5 10.5 24.5t-10.5 24.5t-24.5 10.5q-15 0 -25 -10.5t-10 -24.5t10 -24.5t25 -10.5q14 0 24.5 10.5zM73 18q-33 30 -33 77
q0 49 39 90t113 69.5t178 40.5v49q0 68 -37.5 108t-104.5 39q-58 -1 -93.5 -35t-35.5 -91q0 -13 2.5 -25.5t2.5 -17.5q0 -11 -5.5 -19t-15.5 -8q-12 0 -18 11t-5 31q4 61 34.5 98t70.5 52t74 15q82 0 122.5 -44.5t40.5 -120.5l-2 -260q0 -36 8 -51t24 -15t32 15.5t24 45.5
l9 -4q-8 -35 -29 -56.5t-47 -21.5q-24 0 -38.5 17.5t-14.5 54.5q0 70 1 106q-20 -85 -76.5 -132.5t-127.5 -47.5q-59 0 -92 30zM274.5 43q41.5 28 66.5 77t28 112q1 19 1 54q-157 -24 -226 -73.5t-69 -110.5q0 -38 28 -62.5t78 -24.5q52 0 93.5 28z" />
    <glyph glyph-name="ae" unicode="&#xe6;" horiz-adv-x="800" 
d="M61 19.5q-31 31.5 -31 80.5q0 73 86.5 125t243.5 70v49q0 68 -37.5 108t-104.5 39q-58 -1 -93.5 -35t-35.5 -91q0 -13 2.5 -25.5t2.5 -17.5q0 -11 -5.5 -19t-15.5 -8q-12 0 -18 11t-5 31q4 60 33.5 97t68 52.5t72.5 15.5q68 0 110.5 -32.5t53.5 -88.5q27 58 77.5 89.5
t106.5 31.5q50 0 92.5 -23.5t67.5 -61t25 -77.5q0 -33 -22 -43.5t-81 -10.5h-258q-2 -20 -2 -32q0 -67 23.5 -123t66.5 -88.5t98 -32.5q48 0 85.5 26t60.5 61.5t32 67.5l10 -3q-18 -58 -65 -116t-128 -58q-84 0 -139.5 51.5t-72.5 142.5q-16 -84 -74 -139t-141 -55
q-58 0 -89 31.5zM703 306q12 8 12 34q0 29 -16 65t-49 61.5t-81 25.5q-65 0 -112.5 -49.5t-61.5 -144.5h257q39 0 51 8zM261 43q43 28 69 77.5t29 111.5q1 19 1 54q-158 -24 -226.5 -71.5t-68.5 -107.5q0 -39 26 -65.5t75 -26.5q52 0 95 28z" />
    <glyph glyph-name="ccedilla" unicode="&#xe7;" horiz-adv-x="489" 
d="M414.5 81q-26.5 -40 -66.5 -66.5t-89 -26.5l-37 -40q33 13 61 13q33 0 50.5 -16.5t14.5 -40.5q-5 -32 -39 -50.5t-83 -18.5q-19 0 -40 3l3 13q7 -1 23 -1q42 0 73.5 14t31.5 45q0 19 -14.5 29t-36.5 10q-33 0 -60 -17l-11 16l40 42q-56 6 -100 40.5t-69.5 89.5t-25.5 122
q0 71 30 131t80.5 95t109.5 35q68 0 117.5 -39t61.5 -96q1 -4 1 -10q0 -13 -6 -21t-15 -8q-10 0 -17.5 10t-7.5 29q0 15 -4 32.5t-12 29.5q-41 63 -118 63q-48 0 -90.5 -34t-68 -91.5t-25.5 -125.5q0 -67 27.5 -119t71.5 -81t91 -29q63 0 107.5 40t69.5 114l10 -3
q-12 -42 -38.5 -82z" />
    <glyph glyph-name="egrave" unicode="&#xe8;" horiz-adv-x="491" 
d="M150 666h48l73 -116h-21zM97.5 60q-57.5 72 -57.5 195q0 78 31 134t79.5 84.5t102.5 28.5q50 0 92.5 -23.5t67.5 -61t25 -77.5q0 -23 -7.5 -34.5t-26.5 -15.5t-58 -4h-269q-2 -20 -2 -32q0 -68 23.5 -123t67 -87t101.5 -32q49 0 85.5 25.5t58 60.5t30.5 67l10 -3
q-18 -59 -64 -116.5t-129 -57.5q-103 0 -160.5 72zM386 306q12 8 12 34q0 29 -16 65t-49 61.5t-81 25.5q-65 0 -112.5 -49.5t-61.5 -144.5h257q39 0 51 8z" />
    <glyph glyph-name="eacute" unicode="&#xe9;" horiz-adv-x="491" 
d="M299 666h48l-100 -116h-21zM97.5 60q-57.5 72 -57.5 195q0 78 31 134t79.5 84.5t102.5 28.5q50 0 92.5 -23.5t67.5 -61t25 -77.5q0 -23 -7.5 -34.5t-26.5 -15.5t-58 -4h-269q-2 -20 -2 -32q0 -68 23.5 -123t67 -87t101.5 -32q49 0 85.5 25.5t58 60.5t30.5 67l10 -3
q-18 -59 -64 -116.5t-129 -57.5q-103 0 -160.5 72zM386 306q12 8 12 34q0 29 -16 65t-49 61.5t-81 25.5q-65 0 -112.5 -49.5t-61.5 -144.5h257q39 0 51 8z" />
    <glyph glyph-name="ecircumflex" unicode="&#xea;" horiz-adv-x="491" 
d="M254 666l99 -116h-22l-77 65l-76 -65h-22zM97.5 60q-57.5 72 -57.5 195q0 78 31 134t79.5 84.5t102.5 28.5q50 0 92.5 -23.5t67.5 -61t25 -77.5q0 -23 -7.5 -34.5t-26.5 -15.5t-58 -4h-269q-2 -20 -2 -32q0 -68 23.5 -123t67 -87t101.5 -32q49 0 85.5 25.5t58 60.5
t30.5 67l10 -3q-18 -59 -64 -116.5t-129 -57.5q-103 0 -160.5 72zM386 306q12 8 12 34q0 29 -16 65t-49 61.5t-81 25.5q-65 0 -112.5 -49.5t-61.5 -144.5h257q39 0 51 8z" />
    <glyph glyph-name="edieresis" unicode="&#xeb;" horiz-adv-x="491" 
d="M179.5 590.5q-8.5 8.5 -8.5 19.5q0 12 8.5 20.5t19.5 8.5q12 0 20.5 -8.5t8.5 -20.5q0 -11 -8.5 -19.5t-20.5 -8.5q-11 0 -19.5 8.5zM288.5 590.5q-8.5 8.5 -8.5 19.5q0 12 8.5 20.5t19.5 8.5q12 0 20.5 -8.5t8.5 -20.5q0 -11 -8.5 -19.5t-20.5 -8.5q-11 0 -19.5 8.5z
M97.5 60q-57.5 72 -57.5 195q0 78 31 134t79.5 84.5t102.5 28.5q50 0 92.5 -23.5t67.5 -61t25 -77.5q0 -23 -7.5 -34.5t-26.5 -15.5t-58 -4h-269q-2 -20 -2 -32q0 -68 23.5 -123t67 -87t101.5 -32q49 0 85.5 25.5t58 60.5t30.5 67l10 -3q-18 -59 -64 -116.5t-129 -57.5
q-103 0 -160.5 72zM386 306q12 8 12 34q0 29 -16 65t-49 61.5t-81 25.5q-65 0 -112.5 -49.5t-61.5 -144.5h257q39 0 51 8z" />
    <glyph glyph-name="igrave" unicode="&#xec;" horiz-adv-x="192" 
d="M-13 659h48l74 -116h-22zM71 22.5q9 8.5 9 33.5v380q0 24 -19 24q-4 0 -14 -2l-29 -8v10l94 35v-439q0 -25 9 -33.5t25 -9.5l36 -3v-10h-172v10l36 3q16 1 25 9.5z" />
    <glyph glyph-name="iacute" unicode="&#xed;" horiz-adv-x="192" 
d="M151 660h48l-100 -116h-21zM71 22.5q9 8.5 9 33.5v380q0 24 -19 24q-4 0 -14 -2l-29 -8v10l94 35v-439q0 -25 9 -33.5t25 -9.5l36 -3v-10h-172v10l36 3q16 1 25 9.5z" />
    <glyph glyph-name="icircumflex" unicode="&#xee;" horiz-adv-x="192" 
d="M95 660l99 -116h-22l-77 65l-76 -65h-22zM71 22.5q9 8.5 9 33.5v380q0 24 -19 24q-4 0 -14 -2l-29 -8v10l94 35v-439q0 -25 9 -33.5t25 -9.5l36 -3v-10h-172v10l36 3q16 1 25 9.5z" />
    <glyph glyph-name="idieresis" unicode="&#xef;" horiz-adv-x="192" 
d="M21.5 590.5q-8.5 8.5 -8.5 19.5q0 12 8.5 20.5t19.5 8.5q12 0 20.5 -8.5t8.5 -20.5q0 -11 -8.5 -19.5t-20.5 -8.5q-11 0 -19.5 8.5zM130.5 590.5q-8.5 8.5 -8.5 19.5q0 12 8.5 20.5t19.5 8.5q12 0 20.5 -8.5t8.5 -20.5q0 -11 -8.5 -19.5t-20.5 -8.5q-11 0 -19.5 8.5z
M71 22.5q9 8.5 9 33.5v380q0 24 -19 24q-4 0 -14 -2l-29 -8v10l94 35v-439q0 -25 9 -33.5t25 -9.5l36 -3v-10h-172v10l36 3q16 1 25 9.5z" />
    <glyph glyph-name="ntilde" unicode="&#xf1;" 
d="M312 570q-33 0 -59 25q-20 19 -33.5 28.5t-23.5 9.5q-14 0 -24.5 -15t-16.5 -36l-21 6q11 32 43 47q18 8 35 8q28 0 56 -25q20 -20 34 -29.5t24 -9.5q3 0 9 2q14 6 22.5 25.5t8.5 24.5l21 -7q0 -1 -5.5 -17.5t-35.5 -29.5q-18 -7 -34 -7zM71 22.5q9 8.5 9 33.5v381
q0 24 -20 24l-13 -2l-37 -9v10l102 36v-125q8 37 34 67t61.5 47t72.5 17q70 0 113.5 -47.5t43.5 -140.5v-258q0 -25 9 -33.5t25 -9.5l36 -3v-10h-172v10l36 3q16 1 25 9.5t9 33.5v251q0 88 -38.5 130t-97.5 42q-45 0 -81 -22t-56 -61t-20 -89v-251q0 -25 9 -33.5t25 -9.5
l36 -3v-10h-172v10l36 3q16 1 25 9.5z" />
    <glyph glyph-name="ograve" unicode="&#xf2;" horiz-adv-x="559" 
d="M175 666h48l74 -116h-22zM161 21.5q-55 33.5 -88 91t-33 128.5t31.5 131t86.5 95t120 35t120.5 -34.5t88 -93.5t32.5 -130t-31.5 -129.5t-86.5 -92.5t-120 -34t-120 33.5zM382 31.5q47 32.5 74.5 88.5t27.5 124q0 67 -29 124.5t-76.5 90.5t-100.5 33t-99.5 -34t-74.5 -91
t-28 -125t28.5 -124t75.5 -87.5t101 -31.5t101 32.5z" />
    <glyph glyph-name="oacute" unicode="&#xf3;" horiz-adv-x="559" 
d="M330 666h48l-100 -116h-22zM161 21.5q-55 33.5 -88 91t-33 128.5t31.5 131t86.5 95t120 35t120.5 -34.5t88 -93.5t32.5 -130t-31.5 -129.5t-86.5 -92.5t-120 -34t-120 33.5zM382 31.5q47 32.5 74.5 88.5t27.5 124q0 67 -29 124.5t-76.5 90.5t-100.5 33t-99.5 -34
t-74.5 -91t-28 -125t28.5 -124t75.5 -87.5t101 -31.5t101 32.5z" />
    <glyph glyph-name="ocircumflex" unicode="&#xf4;" horiz-adv-x="559" 
d="M280 666l98 -116h-21l-77 65l-77 -65h-21zM161 21.5q-55 33.5 -88 91t-33 128.5t31.5 131t86.5 95t120 35t120.5 -34.5t88 -93.5t32.5 -130t-31.5 -129.5t-86.5 -92.5t-120 -34t-120 33.5zM382 31.5q47 32.5 74.5 88.5t27.5 124q0 67 -29 124.5t-76.5 90.5t-100.5 33
t-99.5 -34t-74.5 -91t-28 -125t28.5 -124t75.5 -87.5t101 -31.5t101 32.5z" />
    <glyph glyph-name="otilde" unicode="&#xf5;" horiz-adv-x="559" 
d="M331 570q-33 0 -59 25q-20 19 -33.5 28.5t-23.5 9.5q-14 0 -24.5 -15t-16.5 -36l-21 6q11 32 43 47q18 8 35 8q28 0 56 -25q20 -20 34 -29.5t24 -9.5q3 0 9 2q14 6 22.5 25.5t8.5 24.5l21 -7q0 -1 -5.5 -17.5t-35.5 -29.5q-17 -7 -34 -7zM161 21.5q-55 33.5 -88 91
t-33 128.5t31.5 131t86.5 95t120 35t120.5 -34.5t88 -93.5t32.5 -130t-31.5 -129.5t-86.5 -92.5t-120 -34t-120 33.5zM382 31.5q47 32.5 74.5 88.5t27.5 124q0 67 -29 124.5t-76.5 90.5t-100.5 33t-99.5 -34t-74.5 -91t-28 -125t28.5 -124t75.5 -87.5t101 -31.5t101 32.5z
" />
    <glyph glyph-name="odieresis" unicode="&#xf6;" horiz-adv-x="559" 
d="M205.5 590.5q-8.5 8.5 -8.5 19.5q0 12 8.5 20.5t19.5 8.5q12 0 20.5 -8.5t8.5 -20.5q0 -11 -8.5 -19.5t-20.5 -8.5q-11 0 -19.5 8.5zM314.5 590.5q-8.5 8.5 -8.5 19.5q0 12 8.5 20.5t19.5 8.5q12 0 20.5 -8.5t8.5 -20.5q0 -11 -8.5 -19.5t-20.5 -8.5q-11 0 -19.5 8.5z
M161 21.5q-55 33.5 -88 91t-33 128.5t31.5 131t86.5 95t120 35t120.5 -34.5t88 -93.5t32.5 -130t-31.5 -129.5t-86.5 -92.5t-120 -34t-120 33.5zM382 31.5q47 32.5 74.5 88.5t27.5 124q0 67 -29 124.5t-76.5 90.5t-100.5 33t-99.5 -34t-74.5 -91t-28 -125t28.5 -124
t75.5 -87.5t101 -31.5t101 32.5z" />
    <glyph glyph-name="oslash" unicode="&#xf8;" horiz-adv-x="559" 
d="M503.5 335q15.5 -43 15.5 -91q0 -71 -31.5 -129.5t-86.5 -92.5t-120 -34q-49 0 -93 19.5t-78 54.5l-70 -70l-9 8l71 71q-29 34 -45.5 77.5t-16.5 92.5q0 71 31.5 131t86.5 95t120 35q51 0 96 -21t78 -59l70 70l8 -8l-70 -71q28 -35 43.5 -78zM121 90l313 314
q-29 41 -69.5 64.5t-83.5 23.5q-54 0 -101 -33.5t-75.5 -91t-28.5 -125.5q0 -86 45 -152zM380.5 31q47.5 32 75.5 88.5t28 124.5q0 82 -44 150l-312 -314q28 -38 67.5 -59.5t82.5 -21.5q55 0 102.5 32z" />
    <glyph glyph-name="ugrave" unicode="&#xf9;" 
d="M147 666h48l74 -116h-22zM123.5 35.5q-43.5 47.5 -43.5 140.5v258q0 25 -9 33.5t-25 9.5l-36 3v10h102v-307q0 -88 38.5 -130t97.5 -42q45 0 81 22t56 61t20 89v251q0 25 -9 33.5t-25 9.5l-36 3v10h102v-437q0 -24 20 -24l13 2l37 9v-10l-102 -36v125q-8 -37 -34 -67
t-61.5 -47t-72.5 -17q-70 0 -113.5 47.5z" />
    <glyph glyph-name="uacute" unicode="&#xfa;" 
d="M301 666h48l-100 -116h-22zM123.5 35.5q-43.5 47.5 -43.5 140.5v258q0 25 -9 33.5t-25 9.5l-36 3v10h102v-307q0 -88 38.5 -130t97.5 -42q45 0 81 22t56 61t20 89v251q0 25 -9 33.5t-25 9.5l-36 3v10h102v-437q0 -24 20 -24l13 2l37 9v-10l-102 -36v125q-8 -37 -34 -67
t-61.5 -47t-72.5 -17q-70 0 -113.5 47.5z" />
    <glyph glyph-name="ucircumflex" unicode="&#xfb;" 
d="M254 666l98 -116h-21l-77 65l-76 -65h-22zM123.5 35.5q-43.5 47.5 -43.5 140.5v258q0 25 -9 33.5t-25 9.5l-36 3v10h102v-307q0 -88 38.5 -130t97.5 -42q45 0 81 22t56 61t20 89v251q0 25 -9 33.5t-25 9.5l-36 3v10h102v-437q0 -24 20 -24l13 2l37 9v-10l-102 -36v125
q-8 -37 -34 -67t-61.5 -47t-72.5 -17q-70 0 -113.5 47.5z" />
    <glyph glyph-name="udieresis" unicode="&#xfc;" 
d="M179.5 590.5q-8.5 8.5 -8.5 19.5q0 12 8.5 20.5t19.5 8.5q12 0 20.5 -8.5t8.5 -20.5q0 -11 -8.5 -19.5t-20.5 -8.5q-11 0 -19.5 8.5zM288.5 590.5q-8.5 8.5 -8.5 19.5q0 12 8.5 20.5t19.5 8.5q12 0 20.5 -8.5t8.5 -20.5q0 -11 -8.5 -19.5t-20.5 -8.5q-11 0 -19.5 8.5z
M123.5 35.5q-43.5 47.5 -43.5 140.5v258q0 25 -9 33.5t-25 9.5l-36 3v10h102v-307q0 -88 38.5 -130t97.5 -42q45 0 81 22t56 61t20 89v251q0 25 -9 33.5t-25 9.5l-36 3v10h102v-437q0 -24 20 -24l13 2l37 9v-10l-102 -36v125q-8 -37 -34 -67t-61.5 -47t-72.5 -17
q-70 0 -113.5 47.5z" />
    <glyph glyph-name="yacute" unicode="&#xfd;" horiz-adv-x="551" 
d="M343 666h49l-100 -116h-22zM47 -261q-16 0 -26 7t-10 17t9 16.5t26 6.5q41 0 67 10t49.5 40t50.5 92l41 93l-158 409q-11 28 -21 36t-36 11l-29 3v10h186v-10l-39 -3q-17 -1 -25 -5.5t-8 -15.5q0 -6 5 -19l144 -372l159 369q5 11 5 21q0 20 -32 22l-42 3v10h178v-10
l-30 -3q-26 -2 -39.5 -11t-24.5 -35l-243 -562q-30 -70 -68 -96t-77 -33q-4 -1 -12 -1z" />
    <glyph glyph-name="ydieresis" unicode="&#xff;" horiz-adv-x="551" 
d="M208.5 590.5q-8.5 8.5 -8.5 19.5q0 12 8.5 20.5t19.5 8.5q12 0 20.5 -8.5t8.5 -20.5q0 -11 -8.5 -19.5t-20.5 -8.5q-11 0 -19.5 8.5zM317.5 590.5q-8.5 8.5 -8.5 19.5q0 12 8.5 20.5t19.5 8.5q12 0 20.5 -8.5t8.5 -20.5q0 -11 -8.5 -19.5t-20.5 -8.5q-11 0 -19.5 8.5z
M47 -261q-16 0 -26 7t-10 17t9 16.5t26 6.5q41 0 67 10t49.5 40t50.5 92l41 93l-158 409q-11 28 -21 36t-36 11l-29 3v10h186v-10l-39 -3q-17 -1 -25 -5.5t-8 -15.5q0 -6 5 -19l144 -372l159 369q5 11 5 21q0 20 -32 22l-42 3v10h178v-10l-30 -3q-26 -2 -39.5 -11t-24.5 -35
l-243 -562q-30 -70 -68 -96t-77 -33q-4 -1 -12 -1z" />
    <glyph glyph-name="dotlessi" unicode="&#x131;" horiz-adv-x="192" 
d="M46 13q16 1 25 9.5t9 33.5v380q0 24 -19 24q-4 0 -14 -2l-29 -8v10l94 35v-439q0 -25 9 -33.5t25 -9.5l36 -3v-10h-172v10z" />
    <glyph glyph-name="OE" unicode="&#x152;" horiz-adv-x="822" 
d="M180 52.5q-81 52.5 -121 146.5q-29 67 -29 143q0 101 51 190t140 135q64 33 178 33h361l23 -133h-10q-12 53 -24.5 78t-33 34t-58.5 9h-189v-297h187q19 0 33 12.5t15 31.5l4 46h10v-191h-10l-4 46q-1 19 -15 31t-33 12h-187v-318q0 -48 52 -48h154q41 0 63 9.5t37 39
t28 93.5h10l-25 -155h-431q-95 0 -176 52.5zM428 30.5q7 10.5 7 30.5v564q0 23 -6.5 35t-21.5 18q-21 9 -53 9q-31 0 -66.5 -8t-62.5 -22q-72 -37 -117.5 -121.5t-45.5 -181.5q0 -74 28 -140q25 -59 67.5 -105.5t94.5 -72.5t104 -26q24 0 48 6q17 4 24 14.5z" />
    <glyph glyph-name="oe" unicode="&#x153;" horiz-adv-x="938" 
d="M161 21.5q-55 33.5 -88 91t-33 128.5t31.5 131t86.5 95t120 35q74 0 134 -43t88 -114q23 75 79 116t121 41q50 0 92.5 -23.5t67.5 -61t25 -77.5q0 -33 -22 -43.5t-81 -10.5h-258q-2 -20 -2 -32q0 -67 23.5 -123t66.5 -88.5t98 -32.5q48 0 85.5 26t60.5 61.5t32 67.5
l10 -3q-18 -58 -65 -116t-128 -58q-75 0 -127.5 42t-75.5 116q-26 -71 -86.5 -114.5t-134.5 -43.5q-65 0 -120 33.5zM382 31.5q47 32.5 74.5 88.5t27.5 124q0 67 -29 124.5t-76.5 90.5t-100.5 33t-99.5 -34t-74.5 -91t-28 -125t28.5 -124t75.5 -87.5t101 -31.5t101 32.5z
M833 306q12 8 12 34q0 29 -16 65t-49 61.5t-81 25.5q-65 0 -112.5 -49.5t-61.5 -144.5h257q39 0 51 8z" />
    <glyph glyph-name="Ydieresis" unicode="&#x178;" horiz-adv-x="615" 
d="M244.5 778.5q-8.5 8.5 -8.5 19.5q0 12 8.5 20.5t19.5 8.5q12 0 20.5 -8.5t8.5 -20.5q0 -11 -8.5 -19.5t-20.5 -8.5q-11 0 -19.5 8.5zM353.5 778.5q-8.5 8.5 -8.5 19.5q0 12 8.5 20.5t19.5 8.5q12 0 20.5 -8.5t8.5 -20.5q0 -11 -8.5 -19.5t-20.5 -8.5q-11 0 -19.5 8.5z
M229 690l-40 -3q-23 -2 -34.5 -6.5t-11.5 -14.5q0 -8 11 -27l159 -261l160 261q8 12 8 23q0 13 -12 18t-32 7l-47 3v10h215v-10l-49 -3q-20 -1 -35.5 -10.5t-32.5 -37.5l-170 -280v-298q0 -27 14 -36.5t38 -11.5l47 -3v-10h-232v10l49 3q23 1 37.5 10.5t14.5 37.5v299
l-167 279q-17 28 -32 37t-36 11l-41 3v10h219v-10z" />
    <glyph glyph-name="florin" unicode="&#x192;" horiz-adv-x="712" 
d="M64.5 -260q-19.5 19 -30.5 40l9 6q12 -21 31.5 -35t37.5 -14q32 0 53.5 32t41.5 108l158 598h-74l3 12h27q21 0 37.5 13t21.5 33l15 54q50 180 170 203q12 2 17 2q28 0 50.5 -16t36 -41.5t13.5 -53.5q0 -16 -4 -28q-4 -13 -11.5 -20t-17.5 -7q-8 0 -13 5t-5 13q0 7 5 24
q10 28 10 49q0 15 -6 28q-21 39 -63 39q-12 0 -29 -5q-45 -15 -72 -61t-50 -131l-27 -100h174l-3 -12h-174l-13 -49l-145 -549q-23 -87 -55 -121.5t-71 -34.5q-28 0 -47.5 19z" />
    <glyph glyph-name="endash" unicode="&#x2013;" horiz-adv-x="608" 
d="M40 311h528v-11h-528v11z" />
    <glyph glyph-name="emdash" unicode="&#x2014;" horiz-adv-x="1033" 
d="M40 311h953v-11h-953v11z" />
    <glyph glyph-name="quotesinglbase" unicode="&#x201a;" horiz-adv-x="137" 
d="M84 -3q-10 -6 -18 -6q-14 0 -24.5 10.5t-10.5 24.5t10.5 24.5t24.5 10.5q19 0 29.5 -15.5t10.5 -37.5q0 -34 -18 -59t-53 -39v12q47 19 49 75z" />
    <glyph glyph-name="quotedblleft" unicode="&#x201c;" horiz-adv-x="264" 
d="M41.5 553.5q-10.5 15.5 -10.5 37.5q0 34 18 59t53 39v-12q-47 -19 -49 -75q10 6 18 6q15 0 25 -10.5t10 -24.5t-10 -24.5t-25 -10.5q-19 0 -29.5 15.5zM168.5 553.5q-10.5 15.5 -10.5 37.5q0 34 18 59t52 39v-12q-24 -10 -36 -30t-13 -45q12 6 19 6q14 0 24.5 -10.5
t10.5 -24.5t-10.5 -24.5t-24.5 -10.5q-19 0 -29.5 15.5z" />
    <glyph glyph-name="quotedblright" unicode="&#x201d;" horiz-adv-x="264" 
d="M84 626q-9 -7 -18 -7q-14 0 -24.5 10.5t-10.5 24.5t10.5 24.5t24.5 10.5q19 0 29.5 -15.5t10.5 -37.5q0 -34 -18 -59t-53 -39v12q47 19 49 76zM211 626q-11 -7 -19 -7q-14 0 -24 10.5t-10 24.5t10 24.5t24 10.5q19 0 30 -16t11 -37q0 -34 -18 -59t-53 -39v12q47 19 49 76
z" />
    <glyph glyph-name="quotedblbase" unicode="&#x201e;" horiz-adv-x="264" 
d="M84 -3q-10 -6 -18 -6q-14 0 -24.5 10.5t-10.5 24.5t10.5 24.5t24.5 10.5q19 0 29.5 -15.5t10.5 -37.5q0 -34 -18 -59t-53 -39v12q47 19 49 75zM211 -3q-12 -6 -19 -6q-14 0 -24 10.5t-10 24.5t10 24.5t24 10.5q19 0 30 -16t11 -37q0 -34 -18 -59t-53 -39v12q47 19 49 75z
" />
    <glyph glyph-name="bullet" unicode="&#x2022;" horiz-adv-x="176" 
d="M47.5 262.5q-16.5 16.5 -16.5 40.5q0 23 16.5 40t40.5 17q23 0 40 -17t17 -40q0 -24 -17 -40.5t-40 -16.5q-24 0 -40.5 16.5z" />
    <glyph glyph-name="ellipsis" unicode="&#x2026;" horiz-adv-x="440" 
d="M41.5 3.5q-10.5 10.5 -10.5 24.5t10.5 24.5t24.5 10.5t24.5 -10.5t10.5 -24.5t-10.5 -24.5t-24.5 -10.5t-24.5 10.5zM195.5 3.5q-10.5 10.5 -10.5 24.5t10.5 24.5t24.5 10.5t24.5 -10.5t10.5 -24.5t-10.5 -24.5t-24.5 -10.5t-24.5 10.5zM350 3.5q-10 10.5 -10 24.5
t10 24.5t25 10.5q14 0 24 -10.5t10 -24.5t-10 -24.5t-24 -10.5q-15 0 -25 10.5z" />
    <glyph glyph-name="perthousand" unicode="&#x2030;" horiz-adv-x="854" 
d="M88 402.5q-26 24.5 -41.5 66t-15.5 91.5t15 91.5t41 66.5t57 25t57.5 -24t42 -66t15.5 -92q0 -49 -15.5 -91t-41.5 -67t-57 -25t-57 24.5zM486 737h13l-380 -737h-13zM192.5 408.5q22.5 23.5 36 63t13.5 86.5q0 48 -13.5 89t-36 65t-48.5 24q-25 0 -47 -24t-35.5 -64.5
t-13.5 -87.5t13.5 -87.5t36 -64t47.5 -23.5t47.5 23.5zM381 17.5q-26 24.5 -41.5 66t-15.5 90.5q0 50 15 92t41 67t57 25t57 -24.5t41.5 -66t15.5 -91.5t-15 -92t-41 -66.5t-57 -24.5t-57 24.5zM652.5 17q-26.5 24 -42 66t-15.5 91q0 50 15 92t41 67t57 25t57.5 -24.5
t42 -66t15.5 -91.5t-15.5 -91.5t-41.5 -66.5t-57 -25q-30 0 -56.5 24zM756.5 23.5q22.5 23.5 36 63t13.5 86.5q0 48 -13.5 89t-36 65t-48.5 24q-25 0 -47 -24.5t-35.5 -65t-13.5 -87.5t13.5 -87t36 -63.5t47.5 -23.5t47.5 23.5zM485.5 23.5q22.5 23.5 36 63t13.5 86.5
q0 48 -13.5 89t-36 65t-48.5 24q-25 0 -47 -24t-35.5 -65t-13.5 -88t13.5 -87t36 -63.5t47.5 -23.5t47.5 23.5z" />
    <glyph glyph-name="guilsinglleft" unicode="&#x2039;" horiz-adv-x="316" 
d="M194.5 274q-51.5 45 -96.5 60t-67 17v8q56 9 130 49.5t110 151.5l14 -8q-23 -66 -69 -110.5t-94.5 -65.5t-79.5 -21q32 0 80.5 -21t94 -65t68.5 -110l-14 -9q-25 79 -76.5 124z" />
    <glyph glyph-name="guilsinglright" unicode="&#x203a;" horiz-adv-x="316" 
d="M99.5 269q45.5 44 94 65t80.5 21q-30 0 -79 21t-95 65.5t-69 110.5l14 8q36 -111 110 -151.5t130 -49.5v-8q-22 -2 -67 -17t-96.5 -60t-76.5 -124l-14 9q23 66 68.5 110z" />
    <glyph glyph-name="fraction" unicode="&#x2044;" horiz-adv-x="415" 
d="M372 723h12l-341 -723h-12z" />
    <glyph glyph-name="Euro" unicode="&#x20ac;" horiz-adv-x="515" 
d="M485 236q-17 -99 -61.5 -173.5t-122.5 -74.5q-77 0 -127 75t-63 200h-81v12h80q-3 33 -3 69q0 41 4 73h-81v12h82q14 122 66 198.5t131 76.5q38 0 70.5 -18.5t66.5 -59.5v-110h-8q-4 52 -23 92t-48 62.5t-62 22.5q-66 0 -107.5 -74t-53.5 -190h256v-12h-257
q-3 -36 -3 -72q0 -35 3 -70h257v-12h-255q12 -111 54.5 -181t103.5 -70q66 0 108.5 59.5t64.5 164.5h9z" />
    <glyph glyph-name="trademark" unicode="&#x2122;" horiz-adv-x="421" 
d="M67 452q7 1 10 3.5t3 10.5v222h-35q-12 0 -17.5 -3.5t-8.5 -17.5l-4 -21h-5l5 51h146l5 -51h-5l-4 21q-3 14 -8.5 17.5t-16.5 3.5h-36v-222q0 -8 3 -10.5t10 -3.5l15 -2v-5h-72v5zM196 452q7 1 10 3.5t3 11.5v206q0 9 -3 11.5t-10 3.5l-16 2v5h38l78 -225l76 225h37v-5
l-14 -1q-7 -1 -10 -4t-3 -12v-206q0 -9 3 -11.5t10 -3.5l16 -2v-5h-71v5l13 2q7 1 10 3.5t3 11.5v186l-70 -207h-8l-71 207v-186q0 -9 3 -11.5t10 -3.5l17 -2v-5h-71v5z" />
    <glyph glyph-name="arrowleft" unicode="&#x2190;" horiz-adv-x="830" 
d="M30 356v8q179 34 235 199l19 -7q-27 -78 -85.5 -125t-118.5 -64h720v-14h-720q60 -17 118.5 -64t85.5 -125l-19 -7q-56 165 -235 199z" />
    <glyph glyph-name="arrowup" unicode="&#x2191;" horiz-adv-x="466" 
d="M436 500l-7 -19q-78 27 -125 85.5t-64 118.5v-720h-14v720q-17 -60 -64 -118.5t-125 -85.5l-7 19q165 56 199 235h8q34 -179 199 -235z" />
    <glyph glyph-name="arrowright" unicode="&#x2192;" horiz-adv-x="830" 
d="M631.5 279q58.5 47 118.5 64h-720v14h720q-60 17 -118.5 64t-85.5 125l19 7q56 -165 235 -199v-8q-179 -34 -235 -199l-19 7q27 78 85.5 125z" />
    <glyph glyph-name="arrowdown" unicode="&#x2193;" horiz-adv-x="466" 
d="M30 200l7 19q78 -27 125 -85.5t64 -118.5v720h14v-720q17 60 64 118.5t125 85.5l7 -19q-165 -56 -199 -235h-8q-34 179 -199 235z" />
    <glyph glyph-name="uni2196" unicode="&#x2196;" horiz-adv-x="612" 
d="M209 568q67 0 133 33l9 -19q-59 -29 -125 -29q-43 0 -82.5 11.5t-70.5 28.5l509 -509l-10 -10l-509 509q17 -31 28.5 -70.5t11.5 -82.5q0 -66 -29 -125l-19 9q33 66 33 133q0 87 -58 173l6 6q86 -58 173 -58z" />
    <glyph glyph-name="uni2197" unicode="&#x2197;" horiz-adv-x="612" 
d="M539 593q-29 -17 -68.5 -28t-82.5 -11q-68 0 -127 29l9 18q68 -33 133 -33q88 0 174 58l5 -5q-58 -86 -58 -174q0 -65 33 -133l-18 -9q-29 59 -29 127q0 43 11 82.5t28 68.5l-509 -509l-10 10z" />
    <glyph glyph-name="uni2198" unicode="&#x2198;" horiz-adv-x="657" 
d="M432 132q-67 0 -133 -33l-9 19q59 29 125 29q43 0 82.5 -11.5t70.5 -28.5l-509 509l10 10l509 -509q-17 31 -28.5 70.5t-11.5 82.5q0 66 29 125l19 -9q-33 -66 -33 -133q0 -87 58 -173l-6 -6q-86 58 -173 58z" />
    <glyph glyph-name="uni2199" unicode="&#x2199;" horiz-adv-x="657" 
d="M117 253q0 67 -33 133l19 9q29 -59 29 -125q0 -43 -11.5 -82.5t-28.5 -70.5l509 509l10 -10l-509 -509q31 17 70.5 28.5t82.5 11.5q66 0 125 -29l-9 -19q-66 33 -133 33q-87 0 -173 -58l-6 6q58 86 58 173z" />
    <glyph glyph-name="partialdiff" unicode="&#x2202;" horiz-adv-x="478" 
d="M105.5 6q-35.5 25 -55 68.5t-19.5 98.5q0 22 5 52q11 66 46.5 122t85 89t102.5 33q58 1 94.5 -48.5t36.5 -125.5q15 77 15 146q0 79 -19 136.5t-56 82.5q-34 23 -76 23q-69 0 -136 -60l1 15q34 27 70 41.5t71 14.5q41 0 75 -22q49 -33 74 -103t25 -162q0 -58 -11 -124
q-11 -65 -40.5 -134t-82 -118.5t-125.5 -49.5q-45 0 -80.5 25zM278 23.5q41 32.5 67.5 82.5t35.5 104q8 43 8 86q0 85 -34.5 124.5t-86.5 39.5q-42 0 -83.5 -31.5t-72 -85.5t-41.5 -118q-5 -33 -5 -58q0 -77 34 -127t88 -49q49 0 90 32.5z" />
    <glyph glyph-name="uni2206" unicode="&#x2206;" horiz-adv-x="419" 
d="M198 512h11l179 -512h-357zM351 10l-157 448l-146 -448h303z" />
    <glyph glyph-name="product" unicode="&#x220f;" horiz-adv-x="644" 
d="M67 13q23 2 33 10t10 38v722q0 28 -10 36t-33 11l-36 4v10h578v-10l-35 -4q-23 -3 -33.5 -11t-10.5 -36v-722q0 -20 5.5 -29.5t13.5 -12.5t25 -5l38 -4v-10h-189v10l33 3q23 2 33 10t10 38v722q0 28 -13 38t-35 10h-261q-22 0 -35.5 -10t-13.5 -38v-722q0 -30 10.5 -38
t33.5 -10l35 -3v-10h-189v10z" />
    <glyph glyph-name="summation" unicode="&#x2211;" horiz-adv-x="535" 
d="M36 844h419l11 -121h-10l-8 49q-4 26 -24.5 43t-46.5 17h-296l214 -416l-227 -383h342q25 0 44.5 15t25.5 39l14 55h10l-22 -142h-451l234 396z" />
    <glyph glyph-name="radical" unicode="&#x221a;" horiz-adv-x="476" 
d="M125 529l-86 -55l-8 12l116 71l174 -458l101 832h23l-123 -931z" />
    <glyph glyph-name="infinity" unicode="&#x221e;" horiz-adv-x="739" 
d="M384.5 172.5q-54.5 41.5 -69.5 102.5q-24 -50 -58 -76t-82 -26q-39 0 -72.5 21.5t-53 56t-19.5 72.5q0 39 20.5 73.5t53.5 55t69 20.5q31 0 62 -19t50.5 -48t19.5 -59q1 1 0.5 2.5t0.5 2.5q20 68 76.5 113t128.5 45q57 0 102 -26t70.5 -69.5t25.5 -92.5q0 -51 -26.5 -95
t-72 -70t-100.5 -26q-71 1 -125.5 42.5zM603.5 185q41.5 22 64.5 58t23 78q1 42 -21.5 78t-63 58.5t-91.5 23.5q-73 -1 -115.5 -44t-76.5 -142q5 -35 31.5 -65.5t67.5 -48.5t88 -18q52 0 93.5 22zM253 233.5q28 34.5 47 94.5q-1 31 -19 58t-46.5 43t-61.5 16q-53 1 -88 -34
t-35 -84q0 -32 16 -61.5t43.5 -48t61.5 -18.5q54 0 82 34.5z" />
    <glyph glyph-name="approxequal" unicode="&#x2248;" horiz-adv-x="480" 
d="M305.5 338.5q-21.5 12.5 -54.5 39.5l-19 15q3 -3 -26 23q-28 24 -45.5 34.5t-40.5 9.5q-33 0 -51.5 -26t-25 -55t-6.5 -38h-12q0 11 9.5 45t32.5 63.5t61 29.5q26 1 46.5 -11t53.5 -39q16 -12 24 -19q11 -8 29 -24q26 -22 42.5 -31.5t38.5 -10.5q32 0 49.5 26.5t25.5 61
t6 32.5h12q-7 -43 -27.5 -90.5t-73.5 -48.5q-27 1 -48.5 13.5zM305.5 133.5q-21.5 12.5 -56.5 41.5l-17 14l-28 23q-26 24 -43 34t-41 10q-33 0 -51.5 -26.5t-25 -55t-6.5 -37.5h-12q0 11 9.5 45t32.5 63.5t61 29.5q27 0 48.5 -12t52.5 -39l23 -18q9 -7 16 -13t13 -11
q26 -22 42.5 -32t38.5 -10q32 0 49.5 26.5t25.5 61t6 32.5h12q-7 -44 -27.5 -91.5t-73.5 -47.5q-27 0 -48.5 12.5z" />
    <glyph glyph-name="notequal" unicode="&#x2260;" horiz-adv-x="469" 
d="M439 387h-188l-52 -175h240v-11h-243l-88 -298l-13 -2l89 300h-154v11h157l52 175h-209v12h213l88 297l12 3l-89 -300h185v-12z" />
    <glyph glyph-name="lessequal" unicode="&#x2264;" horiz-adv-x="427" 
d="M31 294v13l365 174v-13l-352 -168l352 -167v-13zM31 -9h365v-11h-365v11z" />
    <glyph glyph-name="greaterequal" unicode="&#x2265;" horiz-adv-x="427" 
d="M31 133l352 167l-352 168v13l365 -174v-13l-365 -174v13zM31 -9h365v-11h-365v11z" />
    <glyph glyph-name="lozenge" unicode="&#x25ca;" horiz-adv-x="423" 
d="M31 345l174 365h13l174 -365l-174 -365h-13zM379 345l-168 352l-167 -352l167 -352z" />
    <glyph glyph-name="quotedbl.alt1" unicode="&#xf000;" horiz-adv-x="264" 
d="M84 625q-10 -6 -18 -6q-14 0 -24.5 10.5t-10.5 24.5t10.5 24.5t24.5 10.5q19 0 29.5 -15.5t10.5 -37.5q0 -34 -18 -59t-53 -39v12q47 19 49 75zM211 625q-12 -6 -19 -6q-14 0 -24 10.5t-10 24.5t10 24.5t24 10.5q19 0 30 -16t11 -37q0 -34 -18 -59t-53 -39v12
q47 19 49 75z" />
    <glyph glyph-name="controlLF" horiz-adv-x="280" 
 />
    <glyph glyph-name="asterisk.001" horiz-adv-x="362" 
d="M335.5 572q5.5 -8 5.5 -17q0 -12 -8 -18.5t-20 -6.5q-10 0 -21 6q-5 3 -14.5 12t-15.5 15q-39 39 -59 50l-14 9v-18q-1 -22 14 -76q8 -34 8 -40q0 -15 -8.5 -25.5t-20.5 -10.5q-11 0 -19 10t-8 24q0 5 8 39q1 6 7.5 32.5t6.5 46.5v19l-16 -10q-20 -11 -59 -50
q-6 -6 -15.5 -15t-14.5 -12q-11 -6 -21 -6q-17 0 -25 13q-3 5 -3 11q0 8 5.5 16.5t15.5 13.5q9 5 41 14q53 15 70 25l16 9l-16 10q-21 12 -70 24q-32 9 -42 14q-9 5 -14.5 13t-5.5 17q0 12 7.5 18.5t19.5 6.5q11 0 22 -6q7 -4 30 -27q38 -38 59 -50l16 -10v18
q0 20 -6.5 45.5t-7.5 29.5q-9 31 -9 41q0 15 8 25.5t19 10.5q12 0 20.5 -10t8.5 -24q0 -5 -8 -39q-1 -6 -7.5 -32.5t-6.5 -46.5v-18l15 9q17 10 36.5 28.5t22.5 21.5q21 23 30 28q11 6 22 6q17 0 23 -11q4 -5 4 -13q0 -9 -5.5 -17.5t-15.5 -12.5q-9 -5 -41 -14
q-53 -15 -70 -25l-16 -9l16 -10q21 -12 70 -24q32 -9 41 -14q10 -5 15.5 -13z" />
    <glyph glyph-name="at.001" horiz-adv-x="814" 
d="M510.5 -129.5q-57.5 -19.5 -117.5 -19.5q-72 0 -139.5 26.5t-119.5 77t-78 119.5q-25 66 -25 137q0 79 30.5 154.5t86.5 136.5t131 98q74 37 157 37q71 0 136 -28.5t114.5 -80t75.5 -120.5q20 -53 20 -122q0 -89 -33 -167t-87 -105q-24 -15 -49 -15q-29 0 -42.5 20
t-13.5 49v145q-6 -59 -37.5 -112.5t-73.5 -79.5q-46 -28 -101 -28q-38 0 -69.5 14t-44.5 39q-13 23 -13 49q0 33 21.5 65.5t61.5 61.5q80 58 256 73v42q-3 63 -34.5 106.5t-92.5 43.5q-42 0 -79 -18.5t-58.5 -48t-21.5 -62.5q0 -22 8 -38q4 -9 4 -20q0 -19 -11 -24
q-10 -4 -19.5 3.5t-12.5 20.5q-3 12 -3 27q0 38 19 77t63 65.5t112 26.5q77 0 115.5 -43.5t41.5 -106.5l-1 -284q0 -20 10 -34t30 -14q11 0 29 8q47 25 73.5 92.5t26.5 146.5q0 72 -22 131q-40 105 -126.5 165.5t-186.5 60.5q-70 0 -137 -32q-62 -30 -112 -87t-78.5 -131
t-28.5 -150q0 -67 24 -130q39 -102 124 -160t188 -58q112 0 207 68l10 -10q-50 -38 -107.5 -57.5zM518.5 121.5q38.5 58.5 38.5 158.5v5q-71 -5 -132.5 -23.5t-101.5 -48.5q-32 -24 -50.5 -54t-18.5 -58q0 -22 12 -42q13 -20 38 -30.5t54 -10.5q39 0 69 16q53 29 91.5 87.5z
" />
    </font>
</defs>
</svg>
