<svg xmlns="http://www.w3.org/2000/svg" viewBox="0 0 32 40" x="0px" y="0px"><defs><style>.cls-1{fill:none;}</style></defs><title>Print</title><g data-name="Cloud"><path class="cls-1" d="M10,29H22V18H10Zm3-9h6a1,1,0,0,1,0,2H13a1,1,0,0,1,0-2Zm0,5h6a1,1,0,0,1,0,2H13a1,1,0,0,1,0-2Z"/><path class="cls-1" d="M28.43,12H3.57a.56.56,0,0,0-.57.57v6.86a.56.56,0,0,0,.57.57H8V17a1,1,0,0,1,1-1H23a1,1,0,0,1,1,1v3h4.43a.56.56,0,0,0,.57-.57V12.57A.56.56,0,0,0,28.43,12ZM5.92,14.38a1.15,1.15,0,0,1-.21.33A1.05,1.05,0,0,1,5,15a.84.84,0,0,1-.38-.08,1.15,1.15,0,0,1-.33-.21A1.05,1.05,0,0,1,4,14a1.5,1.5,0,0,1,0-.2.64.64,0,0,1,.06-.18.76.76,0,0,1,.09-.18,1.58,1.58,0,0,1,.12-.15,1.15,1.15,0,0,1,.33-.21,1,1,0,0,1,1.09.21A1,1,0,0,1,6,14,1,1,0,0,1,5.92,14.38Zm2.79.33A1.05,1.05,0,0,1,8,15l-.2,0-.18-.06-.18-.09-.15-.12A1.05,1.05,0,0,1,7,14a1.5,1.5,0,0,1,0-.2.64.64,0,0,1,.06-.18.76.76,0,0,1,.09-.18l.12-.15.15-.12.18-.09L7.8,13a1,1,0,0,1,.91.27l.12.15a.76.76,0,0,1,.09.18A.64.64,0,0,1,9,13.8,1.5,1.5,0,0,1,9,14,1.05,1.05,0,0,1,8.71,14.71Z"/><rect class="cls-1" x="10" y="3" width="12" height="7"/><path fill="#F5A32F" d="M28.43,10H24V2a1,1,0,0,0-1-1H9A1,1,0,0,0,8,2v8H3.57A2.57,2.57,0,0,0,1,12.57v6.86A2.57,2.57,0,0,0,3.57,22H8v8a1,1,0,0,0,1,1H23a1,1,0,0,0,1-1V22h4.43A2.57,2.57,0,0,0,31,19.43V12.57A2.57,2.57,0,0,0,28.43,10ZM10,3H22v7H10ZM22,29H10V18H22Zm7-9.57a.56.56,0,0,1-.57.57H24V17a1,1,0,0,0-1-1H9a1,1,0,0,0-1,1v3H3.57A.56.56,0,0,1,3,19.43V12.57A.56.56,0,0,1,3.57,12H28.43a.56.56,0,0,1,.57.57Z"/><path fill="#F5A32F" d="M13,22h6a1,1,0,0,0,0-2H13a1,1,0,0,0,0,2Z"/><path fill="#F5A32F" d="M13,27h6a1,1,0,0,0,0-2H13a1,1,0,0,0,0,2Z"/><path fill="#F5A32F" d="M4.62,13.08a1.15,1.15,0,0,0-.33.21,1.58,1.58,0,0,0-.12.15.76.76,0,0,0-.09.18A.64.64,0,0,0,4,13.8,1.5,1.5,0,0,0,4,14a1.05,1.05,0,0,0,.29.71,1.15,1.15,0,0,0,.33.21A.84.84,0,0,0,5,15a1.05,1.05,0,0,0,.71-.29,1.15,1.15,0,0,0,.21-.33A1,1,0,0,0,6,14a1,1,0,0,0-.29-.71A1,1,0,0,0,4.62,13.08Z"/><path fill="#F5A32F" d="M8.92,13.62a.76.76,0,0,0-.09-.18l-.12-.15A1,1,0,0,0,7.8,13l-.18.06-.18.09-.15.12-.12.15a.76.76,0,0,0-.09.18A.64.64,0,0,0,7,13.8,1.5,1.5,0,0,0,7,14a1.05,1.05,0,0,0,.29.71l.15.12.18.09L7.8,15,8,15a1,1,0,0,0,1-1,1.5,1.5,0,0,0,0-.2A.64.64,0,0,0,8.92,13.62Z"/></g></svg>