<svg height="226.77333" viewBox="0 0 1122.52 226.77333" width="1122.52" xmlns="http://www.w3.org/2000/svg" xmlns:xlink="http://www.w3.org/1999/xlink"><clipPath id="a"><path d="m0 170.08h841.89v-170.08h-841.89z"/></clipPath><g clip-path="url(#a)" transform="matrix(1.3333333 0 0 -1.3333333 0 226.77333)"><path d="m0 0v17.504h42.281v22.768h-42.281v15.843h49.828v21.943h-81.662v-100.416h83.67v22.358zm4.857 87.206 39.348 23.991-13.961 16.315-35.941-27.831zm-83.029-35.583h29.686v26.435h-90.455v-26.435h29.691v-73.981h31.078zm-129.908-4.498c-1.106.969-1.66 2.235-1.66 3.806 0 1.843.738 3.343 2.213 4.498 1.986 1.521 4.849 2.284 8.58 2.284 3.836 0 6.773-.728 8.828-2.182 2.051-1.451 3.447-3.633 4.183-6.538h31.282c-.643 3.691-1.512 6.908-2.596 9.653-1.082 2.745-2.594 5.444-4.531 8.098-1.938 2.652-4.453 5.006-7.545 7.058-3.086 2.052-7.24 3.714-12.455 4.984-5.215 1.268-10.957 1.902-17.231 1.902-5.259 0-10.373-.553-15.328-1.66-4.963-1.107-9.457-2.999-13.496-5.674-4.035-2.678-7.254-6.208-9.652-10.589-2.403-4.385-3.6-9.39-3.6-15.017 0-5.724 1.338-10.59 4.012-14.602 2.676-4.015 6.642-7.292 11.904-9.829 5.258-2.539 10.889-4.523 16.885-5.952l11.49-2.837c5.902-1.431 9.516-2.769 10.828-4.013 1.315-1.245 1.973-2.882 1.973-4.914 0-1.986-.715-3.53-2.145-4.638-1.939-1.477-5.119-2.214-9.55-2.214-5.073 0-8.834.855-11.284 2.564-2.443 1.703-4.035 4.151-4.771 7.333h-31.627c.555-4.614 1.547-8.488 2.975-11.627 2.031-4.428 5.021-8.328 8.962-11.696 3.946-3.367 8.963-5.951 15.051-7.751 6.09-1.798 12.598-2.699 19.52-2.699 6.318 0 12.338.775 18.062 2.319 5.721 1.544 10.381 3.634 13.977 6.263 3.597 2.632 6.635 6.216 9.101 10.763 2.469 4.542 3.704 9.584 3.704 15.12 0 6.92-2.389 13.01-7.165 18.268-4.773 5.262-13.093 9.321-24.947 12.182l-12.805 3.114c-5.859 1.43-9.572 2.837-11.142 4.223m-85.84-69.483h29.492v100.417h-29.492zm-97.066 0h78.062v21.052h-45.261v79.364h-32.801zm-95.589 0h78.061v21.052h-45.26v79.364h-32.801zm-47.06 0h32.802l-35.916 100.416h-33.495l-35.916-100.416h32.179l3.737 13.15h32.802zm-9.552 33.774h-20.967l10.312 36.47zm-70.716-33.774-40.483 62.63 36.749 37.786h-38.755l-29.69-33.147v33.147h-31.973v-100.416h31.973v31.35l8.719 8.651 24.083-40.001z" fill="#2d2c2e" transform="translate(754.0547 33.8477)"/></g></svg>